<?xml version="1.0" encoding="utf-8"?>
<!-- Generator: Adobe Illustrator 23.1.0, SVG Export Plug-In . SVG Version: 6.00 Build 0)  -->
<svg version="1.1" id="Layer_1" xmlns="http://www.w3.org/2000/svg" xmlns:xlink="http://www.w3.org/1999/xlink" x="0px" y="0px"
	 viewBox="0 0 500 500" style="enable-background:new 0 0 500 500;" xml:space="preserve">
<style type="text/css">
	.st0{fill:none;stroke:#231F20;stroke-miterlimit:10;}
	.st1{fill:#231F20;}
</style>
<ellipse class="st0" cx="250" cy="250" rx="183.39" ry="250"/>
<g>
	<g>
		<path class="st1" d="M321.1,20c-1.55,1.07-2.72,2.49-3.58,4.17c-0.43,0.85-0.8,1.74-1.17,2.61c-0.05,0.12-0.37,0.9-0.11,0.26
			c-0.07,0.17-0.15,0.34-0.22,0.51c-0.16,0.37-0.32,0.73-0.5,1.09c-0.17,0.34-0.35,0.68-0.56,1c-0.06,0.1-0.37,0.62-0.02,0.06
			c-0.11,0.17-0.27,0.33-0.4,0.47c-0.26,0.29-0.55,0.55-0.84,0.8c-0.45,0.39,0.44-0.27-0.06,0.04c-0.17,0.11-0.34,0.22-0.52,0.32
			c-0.07,0.04-0.46,0.31-0.53,0.27c0.1-0.04,0.19-0.08,0.29-0.12c-0.1,0.04-0.21,0.08-0.31,0.11c-0.15,0.05-0.31,0.08-0.47,0.13
			c-0.46,0.14,0.58,0.02-0.03,0c-0.12,0-0.43-0.06-0.53-0.01c0.12,0.02,0.24,0.03,0.37,0.05c-0.1-0.02-0.2-0.04-0.29-0.07
			c-0.47-0.09,0.41,0.27,0.03,0.02c-0.09-0.05-0.18-0.1-0.27-0.16c0.29,0.23,0.33,0.26,0.12,0.09c-0.99-0.85-2.58-1.04-3.54,0
			c-0.86,0.94-1.06,2.62,0,3.54c3.72,3.21,8.54,0.82,11.07-2.65c0.51-0.7,0.88-1.48,1.23-2.28c0.24-0.54,0.46-1.08,0.69-1.62
			c0.07-0.17,0.14-0.34,0.22-0.52c-0.27,0.63,0.06-0.14,0.11-0.26c0.34-0.78,0.71-1.54,1.17-2.26c0.12-0.19,0.25-0.42,0.4-0.58
			c-0.45,0.45-0.05,0.08,0.06-0.04c0.16-0.17,0.32-0.34,0.5-0.5c0.09-0.08,0.18-0.16,0.27-0.23c-0.27,0.21-0.29,0.23-0.07,0.07
			c1.07-0.74,1.67-2.23,0.9-3.42C323.83,19.83,322.25,19.21,321.1,20L321.1,20z"/>
	</g>
</g>
</svg>
