<?xml version="1.0" encoding="utf-8"?>
<!-- Generator: Adobe Illustrator 23.1.0, SVG Export Plug-In . SVG Version: 6.00 Build 0)  -->
<svg version="1.1" id="Layer_1" xmlns="http://www.w3.org/2000/svg" xmlns:xlink="http://www.w3.org/1999/xlink" x="0px" y="0px"
	 viewBox="0 0 500 500" style="enable-background:new 0 0 500 500;" xml:space="preserve">
<style type="text/css">
	.st0{fill:none;stroke:#231F20;stroke-miterlimit:10;}
	.st1{fill:#231F20;}
</style>
<ellipse class="st0" cx="250" cy="250" rx="183.39" ry="250"/>
<g>
	<g>
		<path class="st1" d="M321.1,20c-1.55,1.07-2.72,2.49-3.58,4.17c-0.43,0.85-0.8,1.74-1.17,2.61c-0.05,0.12-0.37,0.9-0.11,0.26
			c-0.07,0.17-0.15,0.34-0.22,0.51c-0.16,0.37-0.32,0.73-0.5,1.09c-0.17,0.34-0.35,0.68-0.56,1c-0.06,0.1-0.37,0.62-0.02,0.06
			c-0.11,0.17-0.27,0.33-0.4,0.47c-0.26,0.29-0.55,0.55-0.84,0.8c-0.45,0.39,0.44-0.27-0.06,0.04c-0.17,0.11-0.34,0.22-0.52,0.32
			c-0.07,0.04-0.46,0.31-0.53,0.27c0.1-0.04,0.19-0.08,0.29-0.12c-0.1,0.04-0.21,0.08-0.31,0.11c-0.15,0.05-0.31,0.08-0.47,0.13
			c-0.46,0.14,0.58,0.02-0.03,0c-0.12,0-0.43-0.06-0.53-0.01c0.12,0.02,0.24,0.03,0.37,0.05c-0.1-0.02-0.2-0.04-0.29-0.07
			c-0.47-0.09,0.41,0.27,0.03,0.02c-0.09-0.05-0.18-0.1-0.27-0.16c0.29,0.23,0.33,0.26,0.12,0.09c-0.99-0.85-2.58-1.04-3.54,0
			c-0.86,0.94-1.06,2.62,0,3.54c3.72,3.21,8.54,0.82,11.07-2.65c0.51-0.7,0.88-1.48,1.23-2.28c0.24-0.54,0.46-1.08,0.69-1.62
			c0.07-0.17,0.14-0.34,0.22-0.52c-0.27,0.63,0.06-0.14,0.11-0.26c0.34-0.78,0.71-1.54,1.17-2.26c0.12-0.19,0.25-0.42,0.4-0.58
			c-0.45,0.45-0.05,0.08,0.06-0.04c0.16-0.17,0.32-0.34,0.5-0.5c0.09-0.08,0.18-0.16,0.27-0.23c-0.27,0.21-0.29,0.23-0.07,0.07
			c1.07-0.74,1.67-2.23,0.9-3.42C323.83,19.83,322.25,19.21,321.1,20L321.1,20z"/>
	</g>
</g>
<g>
	<g>
		<path class="st1" d="M131.44,56.75c0.5,1.72,0.13,3.47-0.13,5.2c-0.26,1.69-0.41,3.3-0.17,5c0.5,3.52,2.88,5.98,6.38,6.6
			c1.05,0.19,2.73,0.13,3.58,0.78c0.47,0.36,0.66,1.07,0.86,1.62c0.32,0.87,0.63,1.74,0.95,2.6c1.27,3.39,2.77,6.91,5.51,9.38
			c2.92,2.64,6.96,4.15,10.85,2.97c3.07-0.93,1.76-5.76-1.33-4.82c-3.36,1.02-6.42-1.54-8.07-4.25c-1.07-1.76-1.8-3.67-2.51-5.6
			c-0.71-1.94-1.26-4.11-2.85-5.53c-1.41-1.26-3.19-1.58-4.99-1.86c-1.24-0.19-2.64-0.28-3.19-1.57c-0.65-1.51-0.31-3.32-0.07-4.88
			c0.37-2.35,0.67-4.65-0.01-6.98C135.36,52.34,130.54,53.65,131.44,56.75L131.44,56.75z"/>
	</g>
</g>
<g>
	<g>
		<path class="st1" d="M420.79,164.81c-3.83-0.29-7.61,0.66-11.28,1.65c-3.33,0.9-6.77,1.95-10.26,1.58
			c-6.53-0.68-10.86-6.81-14.33-11.74c-0.65-0.92-1.69-1.46-2.82-1.15c-1.49,0.41-2.6,1.45-3.33,2.78
			c-0.49,0.89-0.94,2.31-1.38,2.91c0.07-0.1-0.53,0.27-0.11,0.14c0.45-0.14,0.04,0.04-0.03-0.06c-0.21-0.27-1.46-0.48-1.81-0.59
			c-0.47-0.16-0.94-0.33-1.41-0.49c-2.19-0.76-4.38-1.52-6.57-2.28c-1.28-0.44-2.73,0.5-3.08,1.75c-0.38,1.38,0.47,2.63,1.75,3.08
			c2.35,0.81,4.7,1.63,7.04,2.44c2.12,0.73,4.37,1.72,6.53,0.53c1.28-0.71,2.06-1.97,2.63-3.26c0.24-0.55,0.48-1.1,0.75-1.64
			c0.08-0.14,0.16-0.28,0.25-0.42c-0.16,0.19-0.15,0.17,0.04-0.04c0.21-0.2,0.22-0.21,0.01-0.03c-0.26,0.09-0.25,0.09,0.04,0
			c-0.94-0.38-1.88-0.77-2.82-1.15c4.16,5.92,9.17,12.6,16.77,13.97c4,0.72,7.97-0.05,11.85-1.08c3.81-1.01,7.58-2.21,11.57-1.91
			c1.35,0.1,2.5-1.22,2.5-2.5C423.29,165.87,422.14,164.91,420.79,164.81L420.79,164.81z"/>
	</g>
</g>
<g>
	<g>
		<path class="st1" d="M71.99,203.37c4.02-0.39,7.39-2.43,10.17-5.29c2.69-2.77,4.63-6.15,7.18-9.04c0.58-0.66,1.2-1.29,1.85-1.88
			c0.3-0.27,0.6-0.52,0.92-0.76c0.09-0.07,0.67-0.42,0.68-0.45c-0.01,0.19-0.86-0.23-0.88-0.01c-0.01,0.1,0.62,0.79,0.68,0.88
			c0.34,0.47,0.67,0.94,1.01,1.41c0.67,0.94,1.35,1.88,2.02,2.82c1.39,1.94,2.79,3.89,4.18,5.83c0.62,0.87,1.2,1.88,2.15,2.44
			c1.13,0.66,2.46,0.5,3.57-0.11c0.8-0.44,1.37-0.91,2.31-1.01c0.95-0.1,1.91,0.08,2.79,0.41c2.08,0.78,3.77,2.4,5.38,3.87
			c2.38,2.16,5.92-1.36,3.54-3.54c-2.36-2.15-4.85-4.32-7.96-5.28c-1.39-0.43-2.89-0.58-4.33-0.41c-0.74,0.09-1.44,0.23-2.13,0.5
			c-0.43,0.17-0.88,0.36-1.28,0.59c-0.2,0.12-0.89,0.34-0.5,0.38c0.42,0.11,0.84,0.23,1.26,0.34c0.33,0.42,0.32,0.39-0.05-0.11
			c-0.19-0.27-0.38-0.54-0.58-0.8c-0.29-0.4-0.58-0.8-0.87-1.21c-0.67-0.94-1.35-1.88-2.02-2.82c-1.35-1.88-2.69-3.75-4.04-5.63
			c-1.18-1.65-2.48-3.54-4.78-3.46c-2.01,0.07-3.85,1.82-5.21,3.14c-2.7,2.63-4.6,5.89-7,8.77c-2.04,2.45-4.72,5.12-8.08,5.44
			c-1.34,0.13-2.5,1.06-2.5,2.5C69.49,202.12,70.64,203.5,71.99,203.37L71.99,203.37z"/>
	</g>
</g>
<g>
	<g>
		<path class="st1" d="M390.14,409.85c-3.04-2.83-5.61-6.07-7.63-9.7c-1-1.81-1.71-3.72-2.6-5.58c-1.07-2.24-2.89-3.41-5.35-3.62
			c-2.22-0.19-4.41-0.29-6.6-0.71c-2.27-0.43-4.5-1.04-6.67-1.82c-0.95-0.34-1.9-0.71-2.82-1.14c-0.73-0.34-1.08-0.34-1.03-1.15
			c0.12-2.05,0.24-3.93-0.1-5.98c-0.73-4.35-3.13-8.48-6.58-11.23c-1.05-0.84-2.51-1.03-3.54,0c-0.87,0.87-1.06,2.69,0,3.54
			c2.82,2.25,4.77,5.42,5.29,9.02c0.27,1.84-0.21,3.62-0.07,5.44c0.19,2.46,1.78,3.91,3.92,4.86c4.37,1.95,8.92,3.21,13.67,3.8
			c1.07,0.13,2.14,0.23,3.22,0.29c0.78,0.04,1.54-0.12,2.01,0.55c0.5,0.72,0.75,1.67,1.09,2.47c0.44,1.03,0.92,2.04,1.45,3.04
			c2.26,4.27,5.28,8.16,8.81,11.46C388.96,415.58,392.51,412.05,390.14,409.85L390.14,409.85z"/>
	</g>
</g>
<g>
	<g>
		<path class="st1" d="M130.94,431.34c2.04-6.9,5.94-12.87,11.27-17.65c0.09-0.08,0.17-0.11,0.27-0.13
			c-0.35,0.06-0.23,0.01-0.11,0.05c0.34,0.12,0.68,0.4,0.97,0.61c0.79,0.54,1.55,1.13,2.29,1.75c1.52,1.27,2.95,2.64,4.29,4.1
			c1.39,1.53,2.62,3.29,4.88,3.44c1.84,0.12,3.48-0.9,4.62-2.29c1.24-1.5,2.08-3.29,3.09-4.95c1.04-1.72,2.13-3.41,3.28-5.05
			c1.11-1.59,2.28-3.15,3.5-4.66c1.2-1.48,2.42-3.18,3.88-4.42c0.17-0.15,0.33-0.3,0.53-0.4c-0.05,0.02,0.56-0.16,0.32-0.08
			c-0.08,0.03-0.37-0.06-0.08,0c0.17,0.04,0.4,0.15,0.77,0.51c0.9,0.91,1.59,2.09,2.42,3.17c2.26,2.93,5.39,4.26,9.09,3.99
			c4.38-0.32,8.79-1.77,12.94-3.16c4.54-1.52,8.98-3.36,13.27-5.47c1.21-0.6,1.54-2.31,0.9-3.42c-0.72-1.24-2.2-1.5-3.42-0.9
			c-3.78,1.86-7.65,3.47-11.64,4.82c-3.68,1.25-7.61,2.61-11.48,3.08c-1.38,0.17-3.02,0.24-4.25-0.53c-1.05-0.65-1.7-1.75-2.4-2.73
			c-1.86-2.6-4.42-5.31-7.95-4.04c-2.01,0.72-3.37,2.42-4.72,3.98c-1.35,1.57-2.65,3.19-3.9,4.84c-2.47,3.26-4.73,6.69-6.74,10.25
			c-0.37,0.65-0.7,1.35-1.19,1.91c-0.17,0.2-0.37,0.36-0.56,0.53c0.08-0.07,0.36,0.31,0.19,0.06c-1.12-1.58-2.71-3.05-4.12-4.37
			c-1.49-1.4-3.08-2.69-4.74-3.89c-1.66-1.2-3.53-2.12-5.61-1.43c-2.06,0.69-3.73,2.67-5.15,4.23c-1.48,1.62-2.84,3.37-4.07,5.2
			c-2.41,3.59-4.23,7.59-5.45,11.73C125.2,433.1,130.03,434.42,130.94,431.34L130.94,431.34z"/>
	</g>
</g>
<g>
	<g>
		<path class="st1" d="M287.93,491.44c0.4-4.42,0.67-9.37-1.92-13.24c-2.54-3.78-6.52-5.51-10.96-4.4
			c-0.62,0.16-1.87,0.76-2.53,0.51c-0.39-0.14-0.4-0.64-0.51-1.1c-0.48-1.99-1.05-3.88-1.98-5.71c-1.85-3.63-4.86-6.73-8.42-8.7
			c-3.52-1.94-9.46-3.08-10.52-7.62c-0.73-3.13-5.55-1.81-4.82,1.33c1,4.33,4.81,6.93,8.63,8.65c3.64,1.64,7.08,3.24,9.45,6.6
			c1.08,1.53,1.91,3.19,2.41,4.99c0.58,2.08,0.83,4.22,2.72,5.58c1.85,1.33,4.04,1.02,6.11,0.49c1.63-0.42,2.92-0.72,4.4,0.24
			c3.99,2.58,3.28,8.34,2.92,12.38c-0.12,1.35,1.24,2.5,2.5,2.5C286.89,493.94,287.81,492.79,287.93,491.44L287.93,491.44z"/>
	</g>
</g>
<g>
	<g>
		<path class="st1" d="M346.17,248.74c-2.61-1.47-4.63-3.61-6-6.27c-0.7-1.35-1.17-2.84-1.41-4.34c-0.23-1.44-0.01-2.94-0.47-4.34
			c-0.67-2.04-2.79-3.16-4.86-2.54c-1.85,0.55-3.57,1.98-5.19,3c-3.51,2.2-7.01,4.4-10.52,6.61c1.22,0.5,2.45,1,3.67,1.49
			c-1.07-7.88-2.7-15.67-4.88-23.32c-0.4-1.4-2.35-2.5-3.67-1.49c-4.55,3.45-10.82,4.43-16.07,1.97c-1.22-0.57-2.7-0.34-3.42,0.9
			c-0.63,1.08-0.33,2.84,0.9,3.42c6.78,3.18,15.09,2.61,21.12-1.97c-1.22-0.5-2.45-1-3.67-1.49c2.18,7.65,3.81,15.44,4.88,23.32
			c0.22,1.6,2.45,2.26,3.67,1.49c3.16-1.99,6.32-3.97,9.49-5.96c0.82-0.52,1.65-1.04,2.47-1.55c0.71-0.45,1.87-0.88,2.41-1.5
			c0.05-0.03,0.1-0.05,0.15-0.08c-1.04-1.08-1.42-1.25-1.16-0.51c0.02-0.17,0.01,0.43,0.01,0.47c0.01,0.79,0.07,1.57,0.17,2.36
			c0.79,6.11,4.48,11.64,9.86,14.67C346.46,254.64,348.98,250.32,346.17,248.74L346.17,248.74z"/>
	</g>
</g>
<g>
	<g>
		<path class="st1" d="M313.45,248.97c-0.7,3.57-1.39,7.14-2.09,10.71c-0.01,0.07-0.29,1.2-0.28,1.22
			c-0.06-0.05,0.44-0.36,0.44-0.36c0.04-0.1-0.86-0.35-1.17-0.49c-1.38-0.62-2.68-1.5-3.87-2.42c-1.29-1-2.53-2.44-4-3.13
			c-2.16-1.01-4.05,0.44-4.9,2.38c-0.64,1.46-0.69,3.05-0.97,4.52c-0.13,0.7-0.19,0.95-0.55,1.48c-0.09,0.14-0.1,0.15-0.02,0.04
			c-0.23,0.2-0.25,0.24-0.08,0.13c-0.26,0.15-0.29,0.17-0.08,0.07c0.25,0,0.22,0-0.1,0c-3.22-0.01-3.22,4.99,0,5
			c2.01,0.01,3.65-1.15,4.68-2.82c0.88-1.44,1.05-3.09,1.27-4.64c0.06-0.42,0.13-0.84,0.24-1.25c0.06-0.23,0.35-0.66,0.36-0.85
			c-2-0.23-2.66-0.08-1.98,0.45c0.13,0.11,0.26,0.22,0.39,0.33c0.34,0.29,0.69,0.58,1.04,0.87c1.41,1.18,2.87,2.34,4.44,3.3
			c1.56,0.95,3.5,1.98,5.37,2c2.23,0.03,3.84-1.45,4.4-3.54c0.49-1.8,0.74-3.7,1.1-5.53c0.4-2.04,0.8-4.08,1.2-6.12
			c0.26-1.32-0.37-2.7-1.75-3.08C315.3,246.89,313.71,247.64,313.45,248.97L313.45,248.97z"/>
	</g>
</g>
<g>
	<g>
		<path class="st1" d="M180.8,292.42c-2.04,2.24-4.07,4.47-6.11,6.71c-0.98,1.07-1.94,2.17-2.94,3.23c-0.26,0.27-0.55,0.67-0.9,0.85
			c-0.17,0.09,0.21,0.07,0.12,0.03c-0.19-0.07-0.46-0.41-0.59-0.54c-1.94-2.06-3.66-4.37-5.47-6.55c-1.97-2.37-3.94-4.73-5.91-7.1
			c-1.32-1.59-3.57-0.48-4.18,1.1c-2.42,6.31-5.7,12.29-9.67,17.75c-0.35,0.49-0.76,0.94-1.11,1.43c-0.17,0.23-0.51,0.32-0.16,0.27
			c-0.25,0.04-0.57-0.19-0.75-0.28c-1.33-0.69-2.53-1.72-3.64-2.71c-2.23-1.99-4.23-4.23-6.36-6.32c-2.1-2.06-4.71-4.76-7.64-5.52
			c-4.07-1.06-6.06,3.06-7.97,5.8c-4.03,5.8-8.32,11.41-12.87,16.81c-1.26,1.5-2.54,2.98-3.83,4.44c-0.15,0.17-0.85,0.75-0.87,0.97
			c1.46,0.38,1.88,0.31,1.27-0.22c-0.18-0.21-0.36-0.42-0.53-0.64c-0.63-0.77-1.26-1.55-1.89-2.33c-2.72-3.36-5.45-6.72-8.17-10.09
			c-0.85-1.05-2.65-0.88-3.54,0c-1.04,1.04-0.85,2.48,0,3.54c2.62,3.23,5.24,6.46,7.86,9.7c1.02,1.26,1.97,2.76,3.21,3.81
			c1.82,1.55,3.99,1.13,5.57-0.5c2.59-2.69,4.95-5.67,7.3-8.58c2.5-3.08,4.92-6.22,7.27-9.42c1.02-1.39,2.02-2.79,3.01-4.19
			c0.54-0.77,1.07-1.54,1.6-2.32c0.36-0.53,0.79-1.54,1.35-1.91c0.03-0.02-0.4-0.32,0.3,0.07c0.29,0.16,0.58,0.35,0.86,0.54
			c0.59,0.4,1.15,0.84,1.7,1.3c1.22,1.03,2.36,2.14,3.48,3.27c2.33,2.36,4.58,4.81,7.2,6.85c1.29,1.01,2.64,2.04,4.2,2.6
			c2.04,0.73,4.1,0.13,5.59-1.4c1.42-1.45,2.56-3.32,3.68-5c1.07-1.6,2.08-3.25,3.04-4.92c2.08-3.68,3.85-7.52,5.36-11.46
			c-1.39,0.37-2.79,0.74-4.18,1.1c2.23,2.68,4.46,5.36,6.69,8.04c1.09,1.31,2.18,2.62,3.27,3.92c1,1.2,1.95,2.49,3.39,3.18
			c3.56,1.7,6.11-1.43,8.26-3.79c2.42-2.66,4.84-5.32,7.27-7.98C186.5,293.58,182.97,290.03,180.8,292.42L180.8,292.42z"/>
	</g>
</g>
</svg>
