<?xml version="1.0" encoding="utf-8"?>
<!-- Generator: Adobe Illustrator 23.1.0, SVG Export Plug-In . SVG Version: 6.00 Build 0)  -->
<svg version="1.1" id="Layer_1" xmlns="http://www.w3.org/2000/svg" xmlns:xlink="http://www.w3.org/1999/xlink" x="0px" y="0px"
	 viewBox="0 0 500 500" style="enable-background:new 0 0 500 500;" xml:space="preserve">
<style type="text/css">
	.st0{fill:none;stroke:#231F20;stroke-miterlimit:10;}
	.st1{fill:#231F20;}
</style>
<ellipse class="st0" cx="250" cy="250" rx="183.39" ry="250"/>
<g>
	<g>
		<path class="st1" d="M321.1,20c-2.47,1.67-4.18,3.94-5.64,6.51c-0.58,1.03-1.15,2.08-1.83,3.05c-0.08,0.11-0.16,0.22-0.24,0.33
			c-0.09,0.13,0.37-0.44,0.05-0.08c-0.2,0.22-0.39,0.45-0.6,0.66c-0.2,0.2-0.41,0.37-0.61,0.56c-0.32,0.29,0.42-0.29,0.06-0.05
			c-0.14,0.09-0.28,0.19-0.42,0.28c-0.3,0.19-0.62,0.33-0.94,0.5c-0.23,0.13,0.22-0.11,0.23-0.09c0,0-0.28,0.11-0.31,0.12
			c-0.19,0.07-0.38,0.13-0.57,0.19c-0.41,0.12-0.83,0.22-1.25,0.3c-0.21,0.04-0.73,0.08-0.23,0.04c-0.29,0.02-0.57,0.06-0.86,0.08
			c-1.3,0.09-2.56,1.09-2.5,2.5c0.06,1.28,1.1,2.6,2.5,2.5c3.36-0.23,6.63-1.27,8.89-3.89c1.71-1.98,2.73-4.38,4.18-6.53
			c0.1-0.14,0.2-0.29,0.3-0.43c0.04-0.06,0.09-0.12,0.13-0.18c0.17-0.25-0.4,0.49-0.07,0.09c0.23-0.28,0.46-0.56,0.71-0.82
			c0.26-0.27,0.53-0.53,0.81-0.78c0.08-0.07,0.17-0.14,0.25-0.21c0.25-0.22-0.03-0.02-0.11,0.08c0.13-0.16,0.4-0.29,0.57-0.4
			c1.08-0.73,1.66-2.23,0.9-3.42C323.83,19.82,322.26,19.21,321.1,20L321.1,20z"/>
	</g>
</g>
<g>
	<g>
		<path class="st1" d="M131.44,56.75c0.5,1.72,0.13,3.47-0.13,5.2c-0.26,1.69-0.41,3.3-0.17,5c0.5,3.52,2.88,5.98,6.38,6.6
			c1.05,0.19,2.73,0.13,3.58,0.78c0.47,0.36,0.66,1.07,0.86,1.62c0.32,0.87,0.63,1.74,0.95,2.6c1.27,3.39,2.77,6.91,5.51,9.38
			c2.92,2.64,6.96,4.15,10.85,2.97c3.07-0.93,1.76-5.76-1.33-4.82c-3.36,1.02-6.42-1.54-8.07-4.25c-1.07-1.76-1.8-3.67-2.51-5.6
			c-0.71-1.94-1.26-4.11-2.85-5.53c-1.41-1.26-3.19-1.58-4.99-1.86c-1.24-0.19-2.64-0.28-3.19-1.57c-0.65-1.51-0.31-3.32-0.07-4.88
			c0.37-2.35,0.67-4.65-0.01-6.98C135.36,52.34,130.54,53.65,131.44,56.75L131.44,56.75z"/>
	</g>
</g>
<g>
	<g>
		<path class="st1" d="M420.79,164.81c-3.83-0.29-7.61,0.66-11.28,1.65c-3.33,0.9-6.77,1.95-10.26,1.58
			c-6.53-0.68-10.86-6.81-14.33-11.74c-0.65-0.92-1.69-1.46-2.82-1.15c-1.49,0.41-2.6,1.45-3.33,2.78
			c-0.49,0.89-0.94,2.31-1.38,2.91c0.07-0.1-0.53,0.27-0.11,0.14c0.45-0.14,0.04,0.04-0.03-0.06c-0.21-0.27-1.46-0.48-1.81-0.59
			c-0.47-0.16-0.94-0.33-1.41-0.49c-2.19-0.76-4.38-1.52-6.57-2.28c-1.28-0.44-2.73,0.5-3.08,1.75c-0.38,1.38,0.47,2.63,1.75,3.08
			c2.35,0.81,4.7,1.63,7.04,2.44c2.12,0.73,4.37,1.72,6.53,0.53c1.28-0.71,2.06-1.97,2.63-3.26c0.24-0.55,0.48-1.1,0.75-1.64
			c0.08-0.14,0.16-0.28,0.25-0.42c-0.16,0.19-0.15,0.17,0.04-0.04c0.21-0.2,0.22-0.21,0.01-0.03c-0.26,0.09-0.25,0.09,0.04,0
			c-0.94-0.38-1.88-0.77-2.82-1.15c4.16,5.92,9.17,12.6,16.77,13.97c4,0.72,7.97-0.05,11.85-1.08c3.81-1.01,7.58-2.21,11.57-1.91
			c1.35,0.1,2.5-1.22,2.5-2.5C423.29,165.87,422.14,164.91,420.79,164.81L420.79,164.81z"/>
	</g>
</g>
<g>
	<g>
		<path class="st1" d="M71.99,203.37c4.02-0.39,7.39-2.43,10.17-5.29c2.69-2.77,4.63-6.15,7.18-9.04c0.58-0.66,1.2-1.29,1.85-1.88
			c0.3-0.27,0.6-0.52,0.92-0.76c0.09-0.07,0.67-0.42,0.68-0.45c-0.01,0.19-0.86-0.23-0.88-0.01c-0.01,0.1,0.62,0.79,0.68,0.88
			c0.34,0.47,0.67,0.94,1.01,1.41c0.67,0.94,1.35,1.88,2.02,2.82c1.39,1.94,2.79,3.89,4.18,5.83c0.62,0.87,1.2,1.88,2.15,2.44
			c1.13,0.66,2.46,0.5,3.57-0.11c0.8-0.44,1.37-0.91,2.31-1.01c0.95-0.1,1.91,0.08,2.79,0.41c2.08,0.78,3.77,2.4,5.38,3.87
			c2.38,2.16,5.92-1.36,3.54-3.54c-2.36-2.15-4.85-4.32-7.96-5.28c-1.39-0.43-2.89-0.58-4.33-0.41c-0.74,0.09-1.44,0.23-2.13,0.5
			c-0.43,0.17-0.88,0.36-1.28,0.59c-0.2,0.12-0.89,0.34-0.5,0.38c0.42,0.11,0.84,0.23,1.26,0.34c0.33,0.42,0.32,0.39-0.05-0.11
			c-0.19-0.27-0.38-0.54-0.58-0.8c-0.29-0.4-0.58-0.8-0.87-1.21c-0.67-0.94-1.35-1.88-2.02-2.82c-1.35-1.88-2.69-3.75-4.04-5.63
			c-1.18-1.65-2.48-3.54-4.78-3.46c-2.01,0.07-3.85,1.82-5.21,3.14c-2.7,2.63-4.6,5.89-7,8.77c-2.04,2.45-4.72,5.12-8.08,5.44
			c-1.34,0.13-2.5,1.06-2.5,2.5C69.49,202.12,70.64,203.5,71.99,203.37L71.99,203.37z"/>
	</g>
</g>
<g>
	<g>
		<path class="st1" d="M390.14,409.85c-3.04-2.83-5.61-6.07-7.63-9.7c-1-1.81-1.71-3.72-2.6-5.58c-1.07-2.24-2.89-3.41-5.35-3.62
			c-2.22-0.19-4.41-0.29-6.6-0.71c-2.27-0.43-4.5-1.04-6.67-1.82c-0.95-0.34-1.9-0.71-2.82-1.14c-0.73-0.34-1.08-0.34-1.03-1.15
			c0.12-2.05,0.24-3.93-0.1-5.98c-0.73-4.35-3.13-8.48-6.58-11.23c-1.05-0.84-2.51-1.03-3.54,0c-0.87,0.87-1.06,2.69,0,3.54
			c2.82,2.25,4.77,5.42,5.29,9.02c0.27,1.84-0.21,3.62-0.07,5.44c0.19,2.46,1.78,3.91,3.92,4.86c4.37,1.95,8.92,3.21,13.67,3.8
			c1.07,0.13,2.14,0.23,3.22,0.29c0.78,0.04,1.54-0.12,2.01,0.55c0.5,0.72,0.75,1.67,1.09,2.47c0.44,1.03,0.92,2.04,1.45,3.04
			c2.26,4.27,5.28,8.16,8.81,11.46C388.96,415.58,392.51,412.05,390.14,409.85L390.14,409.85z"/>
	</g>
</g>
<g>
	<g>
		<path class="st1" d="M130.94,431.34c2.04-6.9,5.94-12.87,11.27-17.65c0.09-0.08,0.17-0.11,0.27-0.13
			c-0.35,0.06-0.23,0.01-0.11,0.05c0.34,0.12,0.68,0.4,0.97,0.61c0.79,0.54,1.55,1.13,2.29,1.75c1.52,1.27,2.95,2.64,4.29,4.1
			c1.39,1.53,2.62,3.29,4.88,3.44c1.84,0.12,3.48-0.9,4.62-2.29c1.24-1.5,2.08-3.29,3.09-4.95c1.04-1.72,2.13-3.41,3.28-5.05
			c1.11-1.59,2.28-3.15,3.5-4.66c1.2-1.48,2.42-3.18,3.88-4.42c0.17-0.15,0.33-0.3,0.53-0.4c-0.05,0.02,0.56-0.16,0.32-0.08
			c-0.08,0.03-0.37-0.06-0.08,0c0.17,0.04,0.4,0.15,0.77,0.51c0.9,0.91,1.59,2.09,2.42,3.17c2.26,2.93,5.39,4.26,9.09,3.99
			c4.38-0.32,8.79-1.77,12.94-3.16c4.54-1.52,8.98-3.36,13.27-5.47c1.21-0.6,1.54-2.31,0.9-3.42c-0.72-1.24-2.2-1.5-3.42-0.9
			c-3.78,1.86-7.65,3.47-11.64,4.82c-3.68,1.25-7.61,2.61-11.48,3.08c-1.38,0.17-3.02,0.24-4.25-0.53c-1.05-0.65-1.7-1.75-2.4-2.73
			c-1.86-2.6-4.42-5.31-7.95-4.04c-2.01,0.72-3.37,2.42-4.72,3.98c-1.35,1.57-2.65,3.19-3.9,4.84c-2.47,3.26-4.73,6.69-6.74,10.25
			c-0.37,0.65-0.7,1.35-1.19,1.91c-0.17,0.2-0.37,0.36-0.56,0.53c0.08-0.07,0.36,0.31,0.19,0.06c-1.12-1.58-2.71-3.05-4.12-4.37
			c-1.49-1.4-3.08-2.69-4.74-3.89c-1.66-1.2-3.53-2.12-5.61-1.43c-2.06,0.69-3.73,2.67-5.15,4.23c-1.48,1.62-2.84,3.37-4.07,5.2
			c-2.41,3.59-4.23,7.59-5.45,11.73C125.2,433.1,130.03,434.42,130.94,431.34L130.94,431.34z"/>
	</g>
</g>
<g>
	<g>
		<path class="st1" d="M287.93,491.44c0.4-4.42,0.67-9.37-1.92-13.24c-2.54-3.78-6.52-5.51-10.96-4.4
			c-0.62,0.16-1.87,0.76-2.53,0.51c-0.39-0.14-0.4-0.64-0.51-1.1c-0.48-1.99-1.05-3.88-1.98-5.71c-1.85-3.63-4.86-6.73-8.42-8.7
			c-3.52-1.94-9.46-3.08-10.52-7.62c-0.73-3.13-5.55-1.81-4.82,1.33c1,4.33,4.81,6.93,8.63,8.65c3.64,1.64,7.08,3.24,9.45,6.6
			c1.08,1.53,1.91,3.19,2.41,4.99c0.58,2.08,0.83,4.22,2.72,5.58c1.85,1.33,4.04,1.02,6.11,0.49c1.63-0.42,2.92-0.72,4.4,0.24
			c3.99,2.58,3.28,8.34,2.92,12.38c-0.12,1.35,1.24,2.5,2.5,2.5C286.89,493.94,287.81,492.79,287.93,491.44L287.93,491.44z"/>
	</g>
</g>
<g>
	<g>
		<path class="st1" d="M346.17,248.74c-2.61-1.47-4.63-3.61-6-6.27c-0.7-1.35-1.17-2.84-1.41-4.34c-0.23-1.44-0.01-2.94-0.47-4.34
			c-0.67-2.04-2.79-3.16-4.86-2.54c-1.85,0.55-3.57,1.98-5.19,3c-3.51,2.2-7.01,4.4-10.52,6.61c1.22,0.5,2.45,1,3.67,1.49
			c-1.07-7.88-2.7-15.67-4.88-23.32c-0.4-1.4-2.35-2.5-3.67-1.49c-4.55,3.45-10.82,4.43-16.07,1.97c-1.22-0.57-2.7-0.34-3.42,0.9
			c-0.63,1.08-0.33,2.84,0.9,3.42c6.78,3.18,15.09,2.61,21.12-1.97c-1.22-0.5-2.45-1-3.67-1.49c2.18,7.65,3.81,15.44,4.88,23.32
			c0.22,1.6,2.45,2.26,3.67,1.49c3.16-1.99,6.32-3.97,9.49-5.96c0.82-0.52,1.65-1.04,2.47-1.55c0.71-0.45,1.87-0.88,2.41-1.5
			c0.05-0.03,0.1-0.05,0.15-0.08c-1.04-1.08-1.42-1.25-1.16-0.51c0.02-0.17,0.01,0.43,0.01,0.47c0.01,0.79,0.07,1.57,0.17,2.36
			c0.79,6.11,4.48,11.64,9.86,14.67C346.46,254.64,348.98,250.32,346.17,248.74L346.17,248.74z"/>
	</g>
</g>
<g>
	<g>
		<path class="st1" d="M313.45,248.97c-0.7,3.57-1.39,7.14-2.09,10.71c-0.01,0.07-0.29,1.2-0.28,1.22
			c-0.06-0.05,0.44-0.36,0.44-0.36c0.04-0.1-0.86-0.35-1.17-0.49c-1.38-0.62-2.68-1.5-3.87-2.42c-1.29-1-2.53-2.44-4-3.13
			c-2.16-1.01-4.05,0.44-4.9,2.38c-0.64,1.46-0.69,3.05-0.97,4.52c-0.13,0.7-0.19,0.95-0.55,1.48c-0.09,0.14-0.1,0.15-0.02,0.04
			c-0.23,0.2-0.25,0.24-0.08,0.13c-0.26,0.15-0.29,0.17-0.08,0.07c0.25,0,0.22,0-0.1,0c-3.22-0.01-3.22,4.99,0,5
			c2.01,0.01,3.65-1.15,4.68-2.82c0.88-1.44,1.05-3.09,1.27-4.64c0.06-0.42,0.13-0.84,0.24-1.25c0.06-0.23,0.35-0.66,0.36-0.85
			c-2-0.23-2.66-0.08-1.98,0.45c0.13,0.11,0.26,0.22,0.39,0.33c0.34,0.29,0.69,0.58,1.04,0.87c1.41,1.18,2.87,2.34,4.44,3.3
			c1.56,0.95,3.5,1.98,5.37,2c2.23,0.03,3.84-1.45,4.4-3.54c0.49-1.8,0.74-3.7,1.1-5.53c0.4-2.04,0.8-4.08,1.2-6.12
			c0.26-1.32-0.37-2.7-1.75-3.08C315.3,246.89,313.71,247.64,313.45,248.97L313.45,248.97z"/>
	</g>
</g>
<g>
	<g>
		<path class="st1" d="M180.8,292.42c-2.04,2.24-4.07,4.47-6.11,6.71c-0.98,1.07-1.94,2.17-2.94,3.23c-0.26,0.27-0.55,0.67-0.9,0.85
			c-0.17,0.09,0.21,0.07,0.12,0.03c-0.19-0.07-0.46-0.41-0.59-0.54c-1.94-2.06-3.66-4.37-5.47-6.55c-1.97-2.37-3.94-4.73-5.91-7.1
			c-1.32-1.59-3.57-0.48-4.18,1.1c-2.42,6.31-5.7,12.29-9.67,17.75c-0.35,0.49-0.76,0.94-1.11,1.43c-0.17,0.23-0.51,0.32-0.16,0.27
			c-0.25,0.04-0.57-0.19-0.75-0.28c-1.33-0.69-2.53-1.72-3.64-2.71c-2.23-1.99-4.23-4.23-6.36-6.32c-2.1-2.06-4.71-4.76-7.64-5.52
			c-4.07-1.06-6.06,3.06-7.97,5.8c-4.03,5.8-8.32,11.41-12.87,16.81c-1.26,1.5-2.54,2.98-3.83,4.44c-0.15,0.17-0.85,0.75-0.87,0.97
			c1.46,0.38,1.88,0.31,1.27-0.22c-0.18-0.21-0.36-0.42-0.53-0.64c-0.63-0.77-1.26-1.55-1.89-2.33c-2.72-3.36-5.45-6.72-8.17-10.09
			c-0.85-1.05-2.65-0.88-3.54,0c-1.04,1.04-0.85,2.48,0,3.54c2.62,3.23,5.24,6.46,7.86,9.7c1.02,1.26,1.97,2.76,3.21,3.81
			c1.82,1.55,3.99,1.13,5.57-0.5c2.59-2.69,4.95-5.67,7.3-8.58c2.5-3.08,4.92-6.22,7.27-9.42c1.02-1.39,2.02-2.79,3.01-4.19
			c0.54-0.77,1.07-1.54,1.6-2.32c0.36-0.53,0.79-1.54,1.35-1.91c0.03-0.02-0.4-0.32,0.3,0.07c0.29,0.16,0.58,0.35,0.86,0.54
			c0.59,0.4,1.15,0.84,1.7,1.3c1.22,1.03,2.36,2.14,3.48,3.27c2.33,2.36,4.58,4.81,7.2,6.85c1.29,1.01,2.64,2.04,4.2,2.6
			c2.04,0.73,4.1,0.13,5.59-1.4c1.42-1.45,2.56-3.32,3.68-5c1.07-1.6,2.08-3.25,3.04-4.92c2.08-3.68,3.85-7.52,5.36-11.46
			c-1.39,0.37-2.79,0.74-4.18,1.1c2.23,2.68,4.46,5.36,6.69,8.04c1.09,1.31,2.18,2.62,3.27,3.92c1,1.2,1.95,2.49,3.39,3.18
			c3.56,1.7,6.11-1.43,8.26-3.79c2.42-2.66,4.84-5.32,7.27-7.98C186.5,293.58,182.97,290.03,180.8,292.42L180.8,292.42z"/>
	</g>
</g>
<g>
	<g>
		<path class="st1" d="M205.99,11.39c11.32,4.84,22.18,10.71,32.43,17.53c0.2-1.52,0.4-3.05,0.6-4.57
			c-9.78,3.6-18.07,10.87-22.8,20.19c-1.18,2.32-2.16,4.76-2.88,7.26c-0.9,3.16-1.2,6.31,1.17,8.91c0.93,1.01,2.14,1.78,3.24,2.58
			c1.49,1.07,2.98,2.13,4.46,3.2c2.77,1.99,5.54,3.98,8.32,5.97c6.29,4.51,12.58,9.02,18.87,13.54c0.42-1.55,0.84-3.11,1.26-4.66
			c-12.38,1.59-24.28,5.69-34.93,12.22c-1.6,0.98-1.63,3.34,0,4.32c12.21,7.32,24.42,14.64,36.63,21.96
			c2.77,1.66,5.28-2.66,2.52-4.32c-12.21-7.32-24.42-14.64-36.63-21.96c0,1.44,0,2.88,0,4.32c9.85-6.04,20.93-10.07,32.41-11.54
			c2.47-0.32,3.38-3.14,1.26-4.66c-10.14-7.28-20.29-14.56-30.43-21.83c-1.02-0.73-2.13-1.4-3.04-2.26
			c-0.94-0.88-0.96-1.71-0.68-2.94c0.5-2.2,1.25-4.37,2.2-6.41c1.91-4.1,4.53-7.82,7.77-10.98c3.59-3.52,7.89-6.32,12.61-8.06
			c2.04-0.75,2.46-3.33,0.6-4.57c-10.25-6.83-21.11-12.7-32.43-17.53c-1.24-0.53-2.68-0.37-3.42,0.9
			C204.48,9.02,204.74,10.86,205.99,11.39L205.99,11.39z"/>
	</g>
</g>
<g>
	<g>
		<path class="st1" d="M253.5,342.11c6.45-0.61,10.85-5.26,14.92-9.86c4.9-5.54,9.8-11.09,14.7-16.63
			c-1.31-0.17-2.62-0.34-3.93-0.51c3.92,5.73,7.85,11.47,11.77,17.2c0.91,1.33,2.71,1.69,3.93,0.51
			c6.16-5.96,13.26-10.85,21.02-14.5c1.75-0.82,3.84-2.03,5.82-2c1.88,0.03,3.45,1.46,4.82,2.6c3.49,2.91,6.82,6.01,9.95,9.3
			c3.46,3.61,6.69,7.44,9.65,11.46c1.03,1.39,3.39,1.83,4.32,0c3.05-6.01,7.49-11.31,13.02-15.19c1.38-0.97,2.86-2.04,4.41-2.71
			c0.22-0.09,0.64-0.1,0.39-0.23c0.05,0.03,0.08,0.07,0.13,0.11c0.61,0.56,1,1.86,1.35,2.58c1.84,3.77,3.67,7.55,5.51,11.32
			c0.59,1.21,2.32,1.54,3.42,0.9c1.24-0.72,1.49-2.2,0.9-3.42c-2.1-4.31-4.08-8.7-6.3-12.95c-1.04-1.98-2.73-3.62-5.12-3.48
			c-2.12,0.12-4.16,1.56-5.88,2.69c-6.82,4.42-12.45,10.63-16.13,17.88c1.44,0,2.88,0,4.32,0c-5.88-7.98-12.62-15.27-20.22-21.63
			c-1.87-1.56-3.8-3.2-6.19-3.88c-2.59-0.74-5.14-0.04-7.55,0.97c-4.41,1.85-8.65,4.08-12.65,6.69c-4.48,2.91-8.68,6.27-12.52,9.98
			c1.31,0.17,2.62,0.34,3.93,0.51c-3.92-5.73-7.85-11.47-11.77-17.2c-0.85-1.24-2.79-1.79-3.93-0.51
			c-4.57,5.17-9.15,10.35-13.72,15.52c-3.23,3.65-7.07,9-12.36,9.5c-1.34,0.13-2.5,1.06-2.5,2.5
			C251,340.87,252.14,342.24,253.5,342.11L253.5,342.11z"/>
	</g>
</g>
<g>
	<g>
		<path class="st1" d="M305.51,36.85c5.71,14.91,12.62,29.34,20.72,43.11c0.94-1.22,1.88-2.45,2.82-3.67
			c-5.41-1.79-11.16-2.67-16.86-2.56c-4.02,0.08-13.08,0.24-11.79,6.59c0.25,1.22,0.96,2.24,1.63,3.26c0.82,1.26,1.62,2.53,2.4,3.8
			c1.41,2.3,2.77,4.64,4.07,7c2.6,4.73,4.98,9.59,7.13,14.54c2.42,5.58,4.49,11.31,6.29,17.13c0.95,3.07,5.77,1.76,4.82-1.33
			c-2.94-9.52-6.68-18.8-11.19-27.69c-2.27-4.48-4.74-8.87-7.39-13.13c-0.59-0.96-1.2-1.9-1.81-2.85c-0.3-0.46-0.66-0.92-0.91-1.42
			c-0.49-1-0.05,0.01-0.19-0.04c0.17,0.07,1.46-0.44,1.83-0.5c1.23-0.18,2.48-0.27,3.72-0.33c5.76-0.28,11.45,0.52,16.92,2.33
			c2.11,0.69,3.89-1.86,2.82-3.67c-7.88-13.39-14.66-27.4-20.22-41.91c-0.48-1.26-1.68-2.13-3.08-1.75
			C306.05,34.11,305.02,35.59,305.51,36.85L305.51,36.85z"/>
	</g>
</g>
<g>
	<g>
		<path class="st1" d="M151.24,178.2c6.53,3.82,12.71,8.21,18.41,13.2c1.39,1.22,2.76,2.47,4.1,3.75c1.35,1.3,2.63,2.98,4.26,3.93
			c4.12,2.41,7.56-2.19,10.12-4.78c2.95-2.98,5.9-5.97,8.85-8.95c1.5-1.52,3.01-3.04,4.51-4.56c0.2-0.2,1.57-1.28,1.53-1.55
			c-0.13-0.04-0.26-0.08-0.39-0.12c-0.42-0.2-0.51-0.19-0.27,0.01c0-0.02,0.14,0.15,0.16,0.2c0.19,0.51,0.62,1.02,0.9,1.49
			c4.02,6.76,7.59,13.79,10.69,21.02c1.71,3.99,3.2,8.06,4.65,12.16c1.21,3.41,2.81,7.08,6.27,8.72c1.22,0.58,2.7,0.34,3.42-0.9
			c0.64-1.09,0.33-2.84-0.9-3.42c-2.55-1.21-3.42-4.13-4.28-6.62c-1.33-3.82-2.78-7.59-4.36-11.31c-3.07-7.28-6.6-14.36-10.59-21.18
			c-0.93-1.6-1.81-3.56-3.48-4.51c-1.96-1.12-4.03-0.25-5.56,1.14c-3.12,2.86-5.99,6.05-8.96,9.05c-2.94,2.97-5.83,6-8.82,8.92
			c-0.22,0.21-0.96,0.88-1.04,0.87c-0.24-0.03-1.42-1.43-1.74-1.75c-1.32-1.3-2.66-2.58-4.03-3.82
			c-6.42-5.8-13.44-10.94-20.91-15.31C150.98,172.26,148.46,176.58,151.24,178.2L151.24,178.2z"/>
	</g>
</g>
<g>
	<g>
		<path class="st1" d="M157.01,285.13c0.66,0.35,1.31,0.7,1.97,1.06c1.52,0.82,3.1,0.04,3.67-1.49
			c3.74-10.03,7.55-20.03,11.44-30.01c-0.8,0.61-1.61,1.22-2.41,1.84c0.18-0.02,0.35-0.03,0.53-0.01c-0.23-0.02-0.2,0.01,0.1,0.07
			c-0.3-0.12,0.39,0.23,0.39,0.22c0.58,0.35,1.11,0.78,1.65,1.18c1.2,0.9,2.56,1.68,4.1,1.67c4.25-0.01,5.72-5.23,7.21-8.33
			c3.91-8.13,7.83-16.27,11.74-24.4c0.59-1.22,0.33-2.7-0.9-3.42c-1.09-0.64-2.83-0.33-3.42,0.9c-3.63,7.54-7.26,15.08-10.88,22.63
			c-0.89,1.85-1.78,3.7-2.67,5.55c-0.32,0.66-0.65,1.3-1.01,1.93c-0.05,0.08-0.35,0.33-0.24,0.19c0.2-0.26,0.45,0.24,0.1-0.05
			c-0.33-0.27,0.03,0.05-0.35-0.17c-0.28-0.17-0.55-0.35-0.82-0.54c-0.51-0.37-1-0.77-1.52-1.13c-1.17-0.81-2.57-1.39-4.02-1.28
			c-1.21,0.09-1.98,0.73-2.41,1.84c-3.88,9.98-7.7,19.98-11.44,30.01c1.22-0.5,2.45-1,3.67-1.49c-0.66-0.35-1.31-0.7-1.97-1.06
			C156.7,279.29,154.17,283.6,157.01,285.13L157.01,285.13z"/>
	</g>
</g>
<g>
	<g>
		<path class="st1" d="M430.73,294.51c-3.15-5.39-6.08-10.91-8.75-16.55c-0.64-1.35-1.21-2.75-1.88-4.09
			c-0.8-1.61-2.56-2.04-4.27-1.9c-3.1,0.26-5.55,2.38-7.69,4.45c-2.31,2.24-4.6,4.48-6.91,6.71c-2.24,2.17-4.41,4.47-6.75,6.54
			c-0.15,0.13-0.59,0.17-0.28,0.23c0.16,0.03,0.13-0.02,0.08-0.05c-0.34-0.17-0.63-0.63-0.85-0.92c-0.96-1.22-1.81-2.54-2.69-3.82
			c-1.73-2.5-3.42-5.02-5.06-7.58c-3.75-5.83-7.27-11.81-10.56-17.91c-1.53-2.83-5.85-0.31-4.32,2.52
			c4.48,8.29,9.38,16.36,14.7,24.14c1.31,1.92,2.62,3.86,4.03,5.71c1.34,1.76,3.15,3.17,5.49,2.78c2.3-0.37,3.93-2.45,5.51-3.98
			c1.83-1.78,3.66-3.56,5.49-5.34c1.95-1.89,3.89-3.79,5.84-5.68c1.31-1.27,3.21-3.32,5.22-2.67c-0.5-0.38-1-0.77-1.49-1.15
			c3.22,7.22,6.84,14.25,10.83,21.07C428.04,299.8,432.36,297.29,430.73,294.51L430.73,294.51z"/>
	</g>
</g>
</svg>
