<?xml version="1.0" encoding="utf-8"?>
<!-- Generator: Adobe Illustrator 23.1.0, SVG Export Plug-In . SVG Version: 6.00 Build 0)  -->
<svg version="1.1" id="Layer_1" xmlns="http://www.w3.org/2000/svg" xmlns:xlink="http://www.w3.org/1999/xlink" x="0px" y="0px"
	 viewBox="0 0 500 500" style="enable-background:new 0 0 500 500;" xml:space="preserve">
<style type="text/css">
	.st0{fill:none;stroke:#231F20;stroke-miterlimit:10;}
	.st1{fill:#231F20;}
</style>
<ellipse class="st0" cx="250" cy="250" rx="183.39" ry="250"/>
<g>
	<g>
		<path class="st1" d="M321.1,20c-2.47,1.67-4.18,3.94-5.64,6.51c-0.58,1.03-1.15,2.08-1.83,3.05c-0.08,0.11-0.16,0.22-0.24,0.33
			c-0.09,0.13,0.37-0.44,0.05-0.08c-0.2,0.22-0.39,0.45-0.6,0.66c-0.2,0.2-0.41,0.37-0.61,0.56c-0.32,0.29,0.42-0.29,0.06-0.05
			c-0.14,0.09-0.28,0.19-0.42,0.28c-0.3,0.19-0.62,0.33-0.94,0.5c-0.23,0.13,0.22-0.11,0.23-0.09c0,0-0.28,0.11-0.31,0.12
			c-0.19,0.07-0.38,0.13-0.57,0.19c-0.41,0.12-0.83,0.22-1.25,0.3c-0.21,0.04-0.73,0.08-0.23,0.04c-0.29,0.02-0.57,0.06-0.86,0.08
			c-1.3,0.09-2.56,1.09-2.5,2.5c0.06,1.28,1.1,2.6,2.5,2.5c3.36-0.23,6.63-1.27,8.89-3.89c1.71-1.98,2.73-4.38,4.18-6.53
			c0.1-0.14,0.2-0.29,0.3-0.43c0.04-0.06,0.09-0.12,0.13-0.18c0.17-0.25-0.4,0.49-0.07,0.09c0.23-0.28,0.46-0.56,0.71-0.82
			c0.26-0.27,0.53-0.53,0.81-0.78c0.08-0.07,0.17-0.14,0.25-0.21c0.25-0.22-0.03-0.02-0.11,0.08c0.13-0.16,0.4-0.29,0.57-0.4
			c1.08-0.73,1.66-2.23,0.9-3.42C323.83,19.82,322.26,19.21,321.1,20L321.1,20z"/>
	</g>
</g>
<g>
	<g>
		<path class="st1" d="M131.44,56.75c0.5,1.72,0.13,3.47-0.13,5.2c-0.26,1.69-0.41,3.3-0.17,5c0.5,3.52,2.88,5.98,6.38,6.6
			c1.05,0.19,2.73,0.13,3.58,0.78c0.47,0.36,0.66,1.07,0.86,1.62c0.32,0.87,0.63,1.74,0.95,2.6c1.27,3.39,2.77,6.91,5.51,9.38
			c2.92,2.64,6.96,4.15,10.85,2.97c3.07-0.93,1.76-5.76-1.33-4.82c-3.36,1.02-6.42-1.54-8.07-4.25c-1.07-1.76-1.8-3.67-2.51-5.6
			c-0.71-1.94-1.26-4.11-2.85-5.53c-1.41-1.26-3.19-1.58-4.99-1.86c-1.24-0.19-2.64-0.28-3.19-1.57c-0.65-1.51-0.31-3.32-0.07-4.88
			c0.37-2.35,0.67-4.65-0.01-6.98C135.36,52.34,130.54,53.65,131.44,56.75L131.44,56.75z"/>
	</g>
</g>
<g>
	<g>
		<path class="st1" d="M420.79,164.81c-3.83-0.29-7.61,0.66-11.28,1.65c-3.33,0.9-6.77,1.95-10.26,1.58
			c-6.53-0.68-10.86-6.81-14.33-11.74c-0.65-0.92-1.69-1.46-2.82-1.15c-1.49,0.41-2.6,1.45-3.33,2.78
			c-0.49,0.89-0.94,2.31-1.38,2.91c0.07-0.1-0.53,0.27-0.11,0.14c0.45-0.14,0.04,0.04-0.03-0.06c-0.21-0.27-1.46-0.48-1.81-0.59
			c-0.47-0.16-0.94-0.33-1.41-0.49c-2.19-0.76-4.38-1.52-6.57-2.28c-1.28-0.44-2.73,0.5-3.08,1.75c-0.38,1.38,0.47,2.63,1.75,3.08
			c2.35,0.81,4.7,1.63,7.04,2.44c2.12,0.73,4.37,1.72,6.53,0.53c1.28-0.71,2.06-1.97,2.63-3.26c0.24-0.55,0.48-1.1,0.75-1.64
			c0.08-0.14,0.16-0.28,0.25-0.42c-0.16,0.19-0.15,0.17,0.04-0.04c0.21-0.2,0.22-0.21,0.01-0.03c-0.26,0.09-0.25,0.09,0.04,0
			c-0.94-0.38-1.88-0.77-2.82-1.15c4.16,5.92,9.17,12.6,16.77,13.97c4,0.72,7.97-0.05,11.85-1.08c3.81-1.01,7.58-2.21,11.57-1.91
			c1.35,0.1,2.5-1.22,2.5-2.5C423.29,165.87,422.14,164.91,420.79,164.81L420.79,164.81z"/>
	</g>
</g>
<g>
	<g>
		<path class="st1" d="M71.99,203.37c4.02-0.39,7.39-2.43,10.17-5.29c2.69-2.77,4.63-6.15,7.18-9.04c0.58-0.66,1.2-1.29,1.85-1.88
			c0.3-0.27,0.6-0.52,0.92-0.76c0.09-0.07,0.67-0.42,0.68-0.45c-0.01,0.19-0.86-0.23-0.88-0.01c-0.01,0.1,0.62,0.79,0.68,0.88
			c0.34,0.47,0.67,0.94,1.01,1.41c0.67,0.94,1.35,1.88,2.02,2.82c1.39,1.94,2.79,3.89,4.18,5.83c0.62,0.87,1.2,1.88,2.15,2.44
			c1.13,0.66,2.46,0.5,3.57-0.11c0.8-0.44,1.37-0.91,2.31-1.01c0.95-0.1,1.91,0.08,2.79,0.41c2.08,0.78,3.77,2.4,5.38,3.87
			c2.38,2.16,5.92-1.36,3.54-3.54c-2.36-2.15-4.85-4.32-7.96-5.28c-1.39-0.43-2.89-0.58-4.33-0.41c-0.74,0.09-1.44,0.23-2.13,0.5
			c-0.43,0.17-0.88,0.36-1.28,0.59c-0.2,0.12-0.89,0.34-0.5,0.38c0.42,0.11,0.84,0.23,1.26,0.34c0.33,0.42,0.32,0.39-0.05-0.11
			c-0.19-0.27-0.38-0.54-0.58-0.8c-0.29-0.4-0.58-0.8-0.87-1.21c-0.67-0.94-1.35-1.88-2.02-2.82c-1.35-1.88-2.69-3.75-4.04-5.63
			c-1.18-1.65-2.48-3.54-4.78-3.46c-2.01,0.07-3.85,1.82-5.21,3.14c-2.7,2.63-4.6,5.89-7,8.77c-2.04,2.45-4.72,5.12-8.08,5.44
			c-1.34,0.13-2.5,1.06-2.5,2.5C69.49,202.12,70.64,203.5,71.99,203.37L71.99,203.37z"/>
	</g>
</g>
<g>
	<g>
		<path class="st1" d="M390.14,409.85c-3.04-2.83-5.61-6.07-7.63-9.7c-1-1.81-1.71-3.72-2.6-5.58c-1.07-2.24-2.89-3.41-5.35-3.62
			c-2.22-0.19-4.41-0.29-6.6-0.71c-2.27-0.43-4.5-1.04-6.67-1.82c-0.95-0.34-1.9-0.71-2.82-1.14c-0.73-0.34-1.08-0.34-1.03-1.15
			c0.12-2.05,0.24-3.93-0.1-5.98c-0.73-4.35-3.13-8.48-6.58-11.23c-1.05-0.84-2.51-1.03-3.54,0c-0.87,0.87-1.06,2.69,0,3.54
			c2.82,2.25,4.77,5.42,5.29,9.02c0.27,1.84-0.21,3.62-0.07,5.44c0.19,2.46,1.78,3.91,3.92,4.86c4.37,1.95,8.92,3.21,13.67,3.8
			c1.07,0.13,2.14,0.23,3.22,0.29c0.78,0.04,1.54-0.12,2.01,0.55c0.5,0.72,0.75,1.67,1.09,2.47c0.44,1.03,0.92,2.04,1.45,3.04
			c2.26,4.27,5.28,8.16,8.81,11.46C388.96,415.58,392.51,412.05,390.14,409.85L390.14,409.85z"/>
	</g>
</g>
<g>
	<g>
		<path class="st1" d="M130.94,431.34c2.04-6.9,5.94-12.87,11.27-17.65c0.09-0.08,0.17-0.11,0.27-0.13
			c-0.35,0.06-0.23,0.01-0.11,0.05c0.34,0.12,0.68,0.4,0.97,0.61c0.79,0.54,1.55,1.13,2.29,1.75c1.52,1.27,2.95,2.64,4.29,4.1
			c1.39,1.53,2.62,3.29,4.88,3.44c1.84,0.12,3.48-0.9,4.62-2.29c1.24-1.5,2.08-3.29,3.09-4.95c1.04-1.72,2.13-3.41,3.28-5.05
			c1.11-1.59,2.28-3.15,3.5-4.66c1.2-1.48,2.42-3.18,3.88-4.42c0.17-0.15,0.33-0.3,0.53-0.4c-0.05,0.02,0.56-0.16,0.32-0.08
			c-0.08,0.03-0.37-0.06-0.08,0c0.17,0.04,0.4,0.15,0.77,0.51c0.9,0.91,1.59,2.09,2.42,3.17c2.26,2.93,5.39,4.26,9.09,3.99
			c4.38-0.32,8.79-1.77,12.94-3.16c4.54-1.52,8.98-3.36,13.27-5.47c1.21-0.6,1.54-2.31,0.9-3.42c-0.72-1.24-2.2-1.5-3.42-0.9
			c-3.78,1.86-7.65,3.47-11.64,4.82c-3.68,1.25-7.61,2.61-11.48,3.08c-1.38,0.17-3.02,0.24-4.25-0.53c-1.05-0.65-1.7-1.75-2.4-2.73
			c-1.86-2.6-4.42-5.31-7.95-4.04c-2.01,0.72-3.37,2.42-4.72,3.98c-1.35,1.57-2.65,3.19-3.9,4.84c-2.47,3.26-4.73,6.69-6.74,10.25
			c-0.37,0.65-0.7,1.35-1.19,1.91c-0.17,0.2-0.37,0.36-0.56,0.53c0.08-0.07,0.36,0.31,0.19,0.06c-1.12-1.58-2.71-3.05-4.12-4.37
			c-1.49-1.4-3.08-2.69-4.74-3.89c-1.66-1.2-3.53-2.12-5.61-1.43c-2.06,0.69-3.73,2.67-5.15,4.23c-1.48,1.62-2.84,3.37-4.07,5.2
			c-2.41,3.59-4.23,7.59-5.45,11.73C125.2,433.1,130.03,434.42,130.94,431.34L130.94,431.34z"/>
	</g>
</g>
<g>
	<g>
		<path class="st1" d="M287.93,491.44c0.4-4.42,0.67-9.37-1.92-13.24c-2.54-3.78-6.52-5.51-10.96-4.4
			c-0.62,0.16-1.87,0.76-2.53,0.51c-0.39-0.14-0.4-0.64-0.51-1.1c-0.48-1.99-1.05-3.88-1.98-5.71c-1.85-3.63-4.86-6.73-8.42-8.7
			c-3.52-1.94-9.46-3.08-10.52-7.62c-0.73-3.13-5.55-1.81-4.82,1.33c1,4.33,4.81,6.93,8.63,8.65c3.64,1.64,7.08,3.24,9.45,6.6
			c1.08,1.53,1.91,3.19,2.41,4.99c0.58,2.08,0.83,4.22,2.72,5.58c1.85,1.33,4.04,1.02,6.11,0.49c1.63-0.42,2.92-0.72,4.4,0.24
			c3.99,2.58,3.28,8.34,2.92,12.38c-0.12,1.35,1.24,2.5,2.5,2.5C286.89,493.94,287.81,492.79,287.93,491.44L287.93,491.44z"/>
	</g>
</g>
<g>
	<g>
		<path class="st1" d="M346.17,248.74c-2.61-1.47-4.63-3.61-6-6.27c-0.7-1.35-1.17-2.84-1.41-4.34c-0.23-1.44-0.01-2.94-0.47-4.34
			c-0.67-2.04-2.79-3.16-4.86-2.54c-1.85,0.55-3.57,1.98-5.19,3c-3.51,2.2-7.01,4.4-10.52,6.61c1.22,0.5,2.45,1,3.67,1.49
			c-1.07-7.88-2.7-15.67-4.88-23.32c-0.4-1.4-2.35-2.5-3.67-1.49c-4.55,3.45-10.82,4.43-16.07,1.97c-1.22-0.57-2.7-0.34-3.42,0.9
			c-0.63,1.08-0.33,2.84,0.9,3.42c6.78,3.18,15.09,2.61,21.12-1.97c-1.22-0.5-2.45-1-3.67-1.49c2.18,7.65,3.81,15.44,4.88,23.32
			c0.22,1.6,2.45,2.26,3.67,1.49c3.16-1.99,6.32-3.97,9.49-5.96c0.82-0.52,1.65-1.04,2.47-1.55c0.71-0.45,1.87-0.88,2.41-1.5
			c0.05-0.03,0.1-0.05,0.15-0.08c-1.04-1.08-1.42-1.25-1.16-0.51c0.02-0.17,0.01,0.43,0.01,0.47c0.01,0.79,0.07,1.57,0.17,2.36
			c0.79,6.11,4.48,11.64,9.86,14.67C346.46,254.64,348.98,250.32,346.17,248.74L346.17,248.74z"/>
	</g>
</g>
<g>
	<g>
		<path class="st1" d="M313.45,248.97c-0.7,3.57-1.39,7.14-2.09,10.71c-0.01,0.07-0.29,1.2-0.28,1.22
			c-0.06-0.05,0.44-0.36,0.44-0.36c0.04-0.1-0.86-0.35-1.17-0.49c-1.38-0.62-2.68-1.5-3.87-2.42c-1.29-1-2.53-2.44-4-3.13
			c-2.16-1.01-4.05,0.44-4.9,2.38c-0.64,1.46-0.69,3.05-0.97,4.52c-0.13,0.7-0.19,0.95-0.55,1.48c-0.09,0.14-0.1,0.15-0.02,0.04
			c-0.23,0.2-0.25,0.24-0.08,0.13c-0.26,0.15-0.29,0.17-0.08,0.07c0.25,0,0.22,0-0.1,0c-3.22-0.01-3.22,4.99,0,5
			c2.01,0.01,3.65-1.15,4.68-2.82c0.88-1.44,1.05-3.09,1.27-4.64c0.06-0.42,0.13-0.84,0.24-1.25c0.06-0.23,0.35-0.66,0.36-0.85
			c-2-0.23-2.66-0.08-1.98,0.45c0.13,0.11,0.26,0.22,0.39,0.33c0.34,0.29,0.69,0.58,1.04,0.87c1.41,1.18,2.87,2.34,4.44,3.3
			c1.56,0.95,3.5,1.98,5.37,2c2.23,0.03,3.84-1.45,4.4-3.54c0.49-1.8,0.74-3.7,1.1-5.53c0.4-2.04,0.8-4.08,1.2-6.12
			c0.26-1.32-0.37-2.7-1.75-3.08C315.3,246.89,313.71,247.64,313.45,248.97L313.45,248.97z"/>
	</g>
</g>
<g>
	<g>
		<path class="st1" d="M180.8,292.42c-2.04,2.24-4.07,4.47-6.11,6.71c-0.98,1.07-1.94,2.17-2.94,3.23c-0.26,0.27-0.55,0.67-0.9,0.85
			c-0.17,0.09,0.21,0.07,0.12,0.03c-0.19-0.07-0.46-0.41-0.59-0.54c-1.94-2.06-3.66-4.37-5.47-6.55c-1.97-2.37-3.94-4.73-5.91-7.1
			c-1.32-1.59-3.57-0.48-4.18,1.1c-2.42,6.31-5.7,12.29-9.67,17.75c-0.35,0.49-0.76,0.94-1.11,1.43c-0.17,0.23-0.51,0.32-0.16,0.27
			c-0.25,0.04-0.57-0.19-0.75-0.28c-1.33-0.69-2.53-1.72-3.64-2.71c-2.23-1.99-4.23-4.23-6.36-6.32c-2.1-2.06-4.71-4.76-7.64-5.52
			c-4.07-1.06-6.06,3.06-7.97,5.8c-4.03,5.8-8.32,11.41-12.87,16.81c-1.26,1.5-2.54,2.98-3.83,4.44c-0.15,0.17-0.85,0.75-0.87,0.97
			c1.46,0.38,1.88,0.31,1.27-0.22c-0.18-0.21-0.36-0.42-0.53-0.64c-0.63-0.77-1.26-1.55-1.89-2.33c-2.72-3.36-5.45-6.72-8.17-10.09
			c-0.85-1.05-2.65-0.88-3.54,0c-1.04,1.04-0.85,2.48,0,3.54c2.62,3.23,5.24,6.46,7.86,9.7c1.02,1.26,1.97,2.76,3.21,3.81
			c1.82,1.55,3.99,1.13,5.57-0.5c2.59-2.69,4.95-5.67,7.3-8.58c2.5-3.08,4.92-6.22,7.27-9.42c1.02-1.39,2.02-2.79,3.01-4.19
			c0.54-0.77,1.07-1.54,1.6-2.32c0.36-0.53,0.79-1.54,1.35-1.91c0.03-0.02-0.4-0.32,0.3,0.07c0.29,0.16,0.58,0.35,0.86,0.54
			c0.59,0.4,1.15,0.84,1.7,1.3c1.22,1.03,2.36,2.14,3.48,3.27c2.33,2.36,4.58,4.81,7.2,6.85c1.29,1.01,2.64,2.04,4.2,2.6
			c2.04,0.73,4.1,0.13,5.59-1.4c1.42-1.45,2.56-3.32,3.68-5c1.07-1.6,2.08-3.25,3.04-4.92c2.08-3.68,3.85-7.52,5.36-11.46
			c-1.39,0.37-2.79,0.74-4.18,1.1c2.23,2.68,4.46,5.36,6.69,8.04c1.09,1.31,2.18,2.62,3.27,3.92c1,1.2,1.95,2.49,3.39,3.18
			c3.56,1.7,6.11-1.43,8.26-3.79c2.42-2.66,4.84-5.32,7.27-7.98C186.5,293.58,182.97,290.03,180.8,292.42L180.8,292.42z"/>
	</g>
</g>
<g>
	<g>
		<path class="st1" d="M205.99,11.39c11.32,4.84,22.18,10.71,32.43,17.53c0.2-1.52,0.4-3.05,0.6-4.57
			c-9.78,3.6-18.07,10.87-22.8,20.19c-1.18,2.32-2.16,4.76-2.88,7.26c-0.9,3.16-1.2,6.31,1.17,8.91c0.93,1.01,2.14,1.78,3.24,2.58
			c1.49,1.07,2.98,2.13,4.46,3.2c2.77,1.99,5.54,3.98,8.32,5.97c6.29,4.51,12.58,9.02,18.87,13.54c0.42-1.55,0.84-3.11,1.26-4.66
			c-12.38,1.59-24.28,5.69-34.93,12.22c-1.6,0.98-1.63,3.34,0,4.32c12.21,7.32,24.42,14.64,36.63,21.96
			c2.77,1.66,5.28-2.66,2.52-4.32c-12.21-7.32-24.42-14.64-36.63-21.96c0,1.44,0,2.88,0,4.32c9.85-6.04,20.93-10.07,32.41-11.54
			c2.47-0.32,3.38-3.14,1.26-4.66c-10.14-7.28-20.29-14.56-30.43-21.83c-1.02-0.73-2.13-1.4-3.04-2.26
			c-0.94-0.88-0.96-1.71-0.68-2.94c0.5-2.2,1.25-4.37,2.2-6.41c1.91-4.1,4.53-7.82,7.77-10.98c3.59-3.52,7.89-6.32,12.61-8.06
			c2.04-0.75,2.46-3.33,0.6-4.57c-10.25-6.83-21.11-12.7-32.43-17.53c-1.24-0.53-2.68-0.37-3.42,0.9
			C204.48,9.02,204.74,10.86,205.99,11.39L205.99,11.39z"/>
	</g>
</g>
<g>
	<g>
		<path class="st1" d="M253.5,342.11c6.45-0.61,10.85-5.26,14.92-9.86c4.9-5.54,9.8-11.09,14.7-16.63
			c-1.31-0.17-2.62-0.34-3.93-0.51c3.92,5.73,7.85,11.47,11.77,17.2c0.91,1.33,2.71,1.69,3.93,0.51
			c6.16-5.96,13.26-10.85,21.02-14.5c1.75-0.82,3.84-2.03,5.82-2c1.88,0.03,3.45,1.46,4.82,2.6c3.49,2.91,6.82,6.01,9.95,9.3
			c3.46,3.61,6.69,7.44,9.65,11.46c1.03,1.39,3.39,1.83,4.32,0c3.05-6.01,7.49-11.31,13.02-15.19c1.38-0.97,2.86-2.04,4.41-2.71
			c0.22-0.09,0.64-0.1,0.39-0.23c0.05,0.03,0.08,0.07,0.13,0.11c0.61,0.56,1,1.86,1.35,2.58c1.84,3.77,3.67,7.55,5.51,11.32
			c0.59,1.21,2.32,1.54,3.42,0.9c1.24-0.72,1.49-2.2,0.9-3.42c-2.1-4.31-4.08-8.7-6.3-12.95c-1.04-1.98-2.73-3.62-5.12-3.48
			c-2.12,0.12-4.16,1.56-5.88,2.69c-6.82,4.42-12.45,10.63-16.13,17.88c1.44,0,2.88,0,4.32,0c-5.88-7.98-12.62-15.27-20.22-21.63
			c-1.87-1.56-3.8-3.2-6.19-3.88c-2.59-0.74-5.14-0.04-7.55,0.97c-4.41,1.85-8.65,4.08-12.65,6.69c-4.48,2.91-8.68,6.27-12.52,9.98
			c1.31,0.17,2.62,0.34,3.93,0.51c-3.92-5.73-7.85-11.47-11.77-17.2c-0.85-1.24-2.79-1.79-3.93-0.51
			c-4.57,5.17-9.15,10.35-13.72,15.52c-3.23,3.65-7.07,9-12.36,9.5c-1.34,0.13-2.5,1.06-2.5,2.5
			C251,340.87,252.14,342.24,253.5,342.11L253.5,342.11z"/>
	</g>
</g>
<g>
	<g>
		<path class="st1" d="M305.51,36.85c5.71,14.91,12.62,29.34,20.72,43.11c0.94-1.22,1.88-2.45,2.82-3.67
			c-5.41-1.79-11.16-2.67-16.86-2.56c-4.02,0.08-13.08,0.24-11.79,6.59c0.25,1.22,0.96,2.24,1.63,3.26c0.82,1.26,1.62,2.53,2.4,3.8
			c1.41,2.3,2.77,4.64,4.07,7c2.6,4.73,4.98,9.59,7.13,14.54c2.42,5.58,4.49,11.31,6.29,17.13c0.95,3.07,5.77,1.76,4.82-1.33
			c-2.94-9.52-6.68-18.8-11.19-27.69c-2.27-4.48-4.74-8.87-7.39-13.13c-0.59-0.96-1.2-1.9-1.81-2.85c-0.3-0.46-0.66-0.92-0.91-1.42
			c-0.49-1-0.05,0.01-0.19-0.04c0.17,0.07,1.46-0.44,1.83-0.5c1.23-0.18,2.48-0.27,3.72-0.33c5.76-0.28,11.45,0.52,16.92,2.33
			c2.11,0.69,3.89-1.86,2.82-3.67c-7.88-13.39-14.66-27.4-20.22-41.91c-0.48-1.26-1.68-2.13-3.08-1.75
			C306.05,34.11,305.02,35.59,305.51,36.85L305.51,36.85z"/>
	</g>
</g>
<g>
	<g>
		<path class="st1" d="M151.24,178.2c6.53,3.82,12.71,8.21,18.41,13.2c1.39,1.22,2.76,2.47,4.1,3.75c1.35,1.3,2.63,2.98,4.26,3.93
			c4.12,2.41,7.56-2.19,10.12-4.78c2.95-2.98,5.9-5.97,8.85-8.95c1.5-1.52,3.01-3.04,4.51-4.56c0.2-0.2,1.57-1.28,1.53-1.55
			c-0.13-0.04-0.26-0.08-0.39-0.12c-0.42-0.2-0.51-0.19-0.27,0.01c0-0.02,0.14,0.15,0.16,0.2c0.19,0.51,0.62,1.02,0.9,1.49
			c4.02,6.76,7.59,13.79,10.69,21.02c1.71,3.99,3.2,8.06,4.65,12.16c1.21,3.41,2.81,7.08,6.27,8.72c1.22,0.58,2.7,0.34,3.42-0.9
			c0.64-1.09,0.33-2.84-0.9-3.42c-2.55-1.21-3.42-4.13-4.28-6.62c-1.33-3.82-2.78-7.59-4.36-11.31c-3.07-7.28-6.6-14.36-10.59-21.18
			c-0.93-1.6-1.81-3.56-3.48-4.51c-1.96-1.12-4.03-0.25-5.56,1.14c-3.12,2.86-5.99,6.05-8.96,9.05c-2.94,2.97-5.83,6-8.82,8.92
			c-0.22,0.21-0.96,0.88-1.04,0.87c-0.24-0.03-1.42-1.43-1.74-1.75c-1.32-1.3-2.66-2.58-4.03-3.82
			c-6.42-5.8-13.44-10.94-20.91-15.31C150.98,172.26,148.46,176.58,151.24,178.2L151.24,178.2z"/>
	</g>
</g>
<g>
	<g>
		<path class="st1" d="M157.01,285.13c0.66,0.35,1.31,0.7,1.97,1.06c1.52,0.82,3.1,0.04,3.67-1.49
			c3.74-10.03,7.55-20.03,11.44-30.01c-0.8,0.61-1.61,1.22-2.41,1.84c0.18-0.02,0.35-0.03,0.53-0.01c-0.23-0.02-0.2,0.01,0.1,0.07
			c-0.3-0.12,0.39,0.23,0.39,0.22c0.58,0.35,1.11,0.78,1.65,1.18c1.2,0.9,2.56,1.68,4.1,1.67c4.25-0.01,5.72-5.23,7.21-8.33
			c3.91-8.13,7.83-16.27,11.74-24.4c0.59-1.22,0.33-2.7-0.9-3.42c-1.09-0.64-2.83-0.33-3.42,0.9c-3.63,7.54-7.26,15.08-10.88,22.63
			c-0.89,1.85-1.78,3.7-2.67,5.55c-0.32,0.66-0.65,1.3-1.01,1.93c-0.05,0.08-0.35,0.33-0.24,0.19c0.2-0.26,0.45,0.24,0.1-0.05
			c-0.33-0.27,0.03,0.05-0.35-0.17c-0.28-0.17-0.55-0.35-0.82-0.54c-0.51-0.37-1-0.77-1.52-1.13c-1.17-0.81-2.57-1.39-4.02-1.28
			c-1.21,0.09-1.98,0.73-2.41,1.84c-3.88,9.98-7.7,19.98-11.44,30.01c1.22-0.5,2.45-1,3.67-1.49c-0.66-0.35-1.31-0.7-1.97-1.06
			C156.7,279.29,154.17,283.6,157.01,285.13L157.01,285.13z"/>
	</g>
</g>
<g>
	<g>
		<path class="st1" d="M430.73,294.51c-3.15-5.39-6.08-10.91-8.75-16.55c-0.64-1.35-1.21-2.75-1.88-4.09
			c-0.8-1.61-2.56-2.04-4.27-1.9c-3.1,0.26-5.55,2.38-7.69,4.45c-2.31,2.24-4.6,4.48-6.91,6.71c-2.24,2.17-4.41,4.47-6.75,6.54
			c-0.15,0.13-0.59,0.17-0.28,0.23c0.16,0.03,0.13-0.02,0.08-0.05c-0.34-0.17-0.63-0.63-0.85-0.92c-0.96-1.22-1.81-2.54-2.69-3.82
			c-1.73-2.5-3.42-5.02-5.06-7.58c-3.75-5.83-7.27-11.81-10.56-17.91c-1.53-2.83-5.85-0.31-4.32,2.52
			c4.48,8.29,9.38,16.36,14.7,24.14c1.31,1.92,2.62,3.86,4.03,5.71c1.34,1.76,3.15,3.17,5.49,2.78c2.3-0.37,3.93-2.45,5.51-3.98
			c1.83-1.78,3.66-3.56,5.49-5.34c1.95-1.89,3.89-3.79,5.84-5.68c1.31-1.27,3.21-3.32,5.22-2.67c-0.5-0.38-1-0.77-1.49-1.15
			c3.22,7.22,6.84,14.25,10.83,21.07C428.04,299.8,432.36,297.29,430.73,294.51L430.73,294.51z"/>
	</g>
</g>
<g>
	<g>
		<path class="st1" d="M298.94,398.27c3.22,0,3.22-5,0-5C295.72,393.27,295.72,398.27,298.94,398.27L298.94,398.27z"/>
	</g>
</g>
<g>
	<g>
		<path class="st1" d="M293.01,340.33c6.09,7.37,12.18,14.73,18.26,22.1c0-1.18,0-2.36,0-3.54c-7.45,6.42-14.57,13.21-21.33,20.36
			c-1.68,1.78-3.44,3.54-4.99,5.44c-1.73,2.11-1.48,4.53,0.76,6.15c4.04,2.94,8.57,5.37,13,7.67c2.85,1.48,5.38-2.84,2.52-4.32
			c-3.95-2.05-7.81-4.28-11.54-6.7c-0.11-0.07-1.18-0.79-1.19-0.77c0.06,0.43,0.11,0.86,0.17,1.29c0.13-0.13,0.25-0.27,0.37-0.41
			c0.73-0.81,1.47-1.62,2.21-2.42c1.48-1.61,2.98-3.19,4.5-4.76c6.07-6.28,12.44-12.28,19.06-17.99c1.09-0.94,0.81-2.56,0-3.54
			c-6.09-7.37-12.18-14.73-18.26-22.1c-0.86-1.04-2.64-0.89-3.54,0C291.98,337.83,292.15,339.29,293.01,340.33L293.01,340.33z"/>
	</g>
</g>
<g>
	<g>
		<path class="st1" d="M273.54,98.27c3.22,0,3.22-5,0-5C270.33,93.27,270.32,98.27,273.54,98.27L273.54,98.27z"/>
	</g>
</g>
<g>
	<g>
		<path class="st1" d="M255.63,86.85c4.7,0.11,11.6,0.33,14.42,4.71c1.86,2.89,1.52,6.66,3.5,9.56c1.83,2.68,4.59,4.23,7.57,5.32
			c2.67,0.98,5.55,1.46,8.17,2.56c0.37,0.15,0.94,0.35,1.12,0.73c0.27,0.57-0.09,1.8-0.17,2.4c-0.27,2.05-0.61,4.09-0.99,6.12
			c-0.76,4.07-1.71,8.09-2.86,12.07c-0.55,1.92-1.36,3.89-0.84,5.9c0.48,1.84,2.03,3.01,3.7,3.72c3.63,1.56,7.16,3.04,10.5,5.2
			c3.39,2.19,6.44,4.82,9.19,7.77c0.37-1.39,0.74-2.79,1.1-4.18c-10.56,4.42-20.31,10.37-29.04,17.79
			c-1.18,1.01-0.86,3.24,0.51,3.93c7.85,3.91,15.09,8.88,21.51,14.85c2.35,2.19,5.9-1.34,3.54-3.54
			c-6.72-6.25-14.31-11.54-22.52-15.63c0.17,1.31,0.34,2.62,0.51,3.93c8.01-6.82,17.12-12.45,26.83-16.51
			c1.72-0.72,2.5-2.68,1.1-4.18c-5.07-5.45-11.26-9.82-18.11-12.74c-0.84-0.36-1.68-0.69-2.53-1.02c-0.46-0.18-1.24-0.38-1.53-0.81
			c0.08,0.12,0.04,0.13,0.04-0.07c0-0.47,0.26-1.04,0.4-1.5c0.32-1.07,0.63-2.14,0.93-3.21c1.09-3.99,2-8.03,2.7-12.1
			c0.38-2.18,0.71-4.37,0.97-6.56c0.23-1.95-0.06-3.91-1.52-5.34c-2.26-2.23-6.14-2.77-9.07-3.66c-2.4-0.73-5.18-1.58-6.79-3.65
			c-1.01-1.3-1.32-2.99-1.68-4.55c-0.42-1.78-0.92-3.59-1.91-5.15c-3.94-6.17-12.07-7.03-18.74-7.19
			C252.42,81.78,252.42,86.78,255.63,86.85L255.63,86.85z"/>
	</g>
</g>
<g>
	<g>
		<path class="st1" d="M187.85,258.83c12.16,6.09,25.87,1.8,37.83-2.6c-0.94-0.38-1.88-0.77-2.82-1.15
			c4.37,9.71,8.38,19.57,12.06,29.56c0.57,1.55,2.15,2.3,3.67,1.49c8.02-4.23,16.74-7.05,25.72-8.36c2.16-0.32,4.35-0.52,6.53-0.63
			c0.39-0.02,0.99-0.15,1.36-0.02c-0.09-0.03-0.05-0.24,0.13,0.26c0.35,0.98,0.79,1.94,1.18,2.91c1.84,4.67,3.68,9.35,5.51,14.02
			c0.49,1.26,1.67,2.13,3.08,1.75c1.2-0.33,2.24-1.81,1.75-3.08c-1.6-4.06-3.19-8.12-4.79-12.18c-0.75-1.92-1.4-3.94-2.32-5.79
			c-0.93-1.86-2.68-2.8-4.71-2.91c-1.87-0.1-3.82,0.19-5.68,0.4c-2.09,0.23-4.18,0.53-6.26,0.91c-3.86,0.71-7.66,1.69-11.38,2.95
			c-4.35,1.47-8.58,3.3-12.63,5.44c1.22,0.5,2.45,1,3.67,1.49c-3.83-10.4-8.02-20.65-12.57-30.76c-0.42-0.93-1.87-1.5-2.82-1.15
			c-10.45,3.84-23.24,8.48-33.98,3.1C187.51,253.08,184.97,257.39,187.85,258.83L187.85,258.83z"/>
	</g>
</g>
<g>
	<g>
		<path class="st1" d="M95.15,129.45c11-2.92,22.01-5.84,33.01-8.76c0.72-0.19,1.45-0.38,2.17-0.58c0.3-0.08,0.84-0.37,1.15-0.32
			c-0.32-0.05-0.1-0.09,0.02,0.29c0.24,0.74,0.5,1.48,0.75,2.21c0.9,2.67,1.81,5.33,2.71,8c1.81,5.33,3.61,10.67,5.42,16
			c0.74,2.2,1.3,4.73,2.69,6.63c1.71,2.34,4.37,2.83,7.07,2.1c5.48-1.48,10.86-3.51,16.26-5.26c10.83-3.51,21.66-7.02,32.49-10.53
			c1.5-0.49,3-0.98,4.51-1.46c0.8-0.26,2.12-0.9,2.96-0.46c0.84,0.44,1.32,2.07,1.7,2.86c0.68,1.42,1.35,2.83,2.03,4.25
			c2.78,5.81,5.56,11.63,8.34,17.44c0.58,1.22,2.32,1.54,3.42,0.9c1.25-0.73,1.48-2.2,0.9-3.42c-2.53-5.29-5.06-10.58-7.59-15.88
			c-1.19-2.48-2.27-5.05-3.59-7.46c-1.29-2.35-3.44-3.98-6.22-3.78c-2.8,0.2-5.61,1.49-8.25,2.34c-2.85,0.92-5.69,1.85-8.54,2.77
			c-5.53,1.79-11.07,3.59-16.6,5.38c-5.53,1.79-11.07,3.59-16.6,5.38c-1.34,0.44-2.69,0.87-4.03,1.31
			c-0.91,0.29-2.75,1.28-3.75,0.97c-0.45-0.14-0.71-0.73-0.91-1.16c-0.54-1.21-0.88-2.54-1.3-3.79c-1.89-5.57-3.77-11.14-5.66-16.7
			c-0.93-2.74-1.86-5.49-2.79-8.23c-0.89-2.63-1.88-5.54-5.16-5.67c-1.48-0.06-3.02,0.54-4.44,0.91c-1.61,0.43-3.21,0.85-4.82,1.28
			c-3.13,0.83-6.26,1.66-9.4,2.49c-6.42,1.7-12.85,3.41-19.27,5.11C90.71,125.45,92.03,130.27,95.15,129.45L95.15,129.45z"/>
	</g>
</g>
<g>
	<g>
		<path class="st1" d="M335.2,464.86c-9.33-4.17-18.66-8.33-27.99-12.5c0.17,1.31,0.34,2.62,0.51,3.93
			c8.79-9.94,18.15-19.35,28.04-28.18c1.78-1.59,0.2-4.05-1.77-4.27c-10.96-1.23-21.76-3.69-32.21-7.2
			c-10.12-3.4-20.08-7.59-30.65-9.38c-6.07-1.03-12.15-1.21-18.23-0.13c1.03,1.03,2.05,2.05,3.08,3.08
			c3.57-16.92,7.13-33.84,10.7-50.76c0.28-1.32-0.39-2.7-1.75-3.08c-1.24-0.34-2.8,0.42-3.08,1.75
			c-3.57,16.92-7.13,33.84-10.7,50.76c-0.41,1.97,1.16,3.42,3.08,3.08c10.26-1.83,20.61,0.78,30.32,3.98
			c10.3,3.39,20.34,7.35,30.93,9.78c6.1,1.4,12.29,2.42,18.51,3.12c-0.59-1.42-1.18-2.85-1.77-4.27
			c-9.89,8.84-19.26,18.25-28.04,28.18c-0.96,1.08-1.06,3.23,0.51,3.93c9.33,4.17,18.66,8.33,27.99,12.5
			c1.23,0.55,2.69,0.36,3.42-0.9C336.73,467.21,336.44,465.41,335.2,464.86L335.2,464.86z"/>
	</g>
</g>
<g>
	<g>
		<path class="st1" d="M106.06,394.2c6.96-8.74,13.38-17.88,19.2-27.41c-1.31,0.17-2.62,0.34-3.93,0.51
			c4.81,4.56,9.63,9.11,14.44,13.67c1.15,1.08,3.12,0.93,3.93-0.51c5.6-10.02,12.88-19,21.51-26.58c4.28-3.76,8.88-7.12,13.74-10.08
			c0.23-0.14,3.5-2.11,3.54-2.03c-0.04-0.07-0.6-0.05-0.62-0.03c-0.03,0.05,0.31,0.61,0.34,0.67c0.46,0.88,0.89,1.77,1.33,2.66
			c1.55,3.1,3.11,6.21,4.66,9.31c1.7,3.39,3.67,6.75,5.08,10.26c0.8,1.98,1.43,5.63-1.39,6.14c-2,0.36-2.55,3.74-0.6,4.57
			c12.38,5.27,25.26,9.22,38.5,11.66c1.33,0.24,2.7-0.36,3.08-1.75c0.33-1.22-0.41-2.83-1.75-3.08
			c-12.78-2.35-25.34-6.06-37.3-11.15c-0.2,1.52-0.4,3.05-0.6,4.57c3.35-0.6,5.43-3.85,5.75-7.05c0.38-3.75-1.72-7.27-3.34-10.5
			c-1.85-3.69-3.7-7.39-5.55-11.08c-0.81-1.63-1.63-3.25-2.44-4.88c-0.83-1.65-1.56-3.72-3.23-4.73c-1.76-1.06-3.56-0.44-5.21,0.48
			c-1.52,0.85-3.01,1.76-4.48,2.69c-2.78,1.77-5.47,3.69-8.07,5.71c-5.2,4.03-10.01,8.53-14.35,13.47
			c-4.92,5.6-9.27,11.71-12.91,18.21c1.31-0.17,2.62-0.34,3.93-0.51c-4.81-4.56-9.63-9.11-14.44-13.67
			c-1.18-1.12-3.07-0.89-3.93,0.51c-5.59,9.17-11.73,18-18.42,26.4c-0.84,1.06-1.03,2.51,0,3.54
			C103.4,395.07,105.22,395.26,106.06,394.2L106.06,394.2z"/>
	</g>
</g>
<g>
	<g>
		<path class="st1" d="M426.27,225.21c-5.34,4.62-11.15,8.63-17.33,12.03c1.14,0.3,2.28,0.6,3.42,0.9
			c-4.87-10.63-8.98-21.59-12.35-32.78c-0.41-1.36-1.72-2.01-3.08-1.75c-14.88,2.95-29.75,5.89-44.63,8.84
			c1.05,0.8,2.11,1.61,3.16,2.41c0.57-9.05,0.68-18.11,0.33-27.17c-0.06-1.48-1.11-2.32-2.5-2.5c-6.49-0.85-12.99-1.71-19.48-2.56
			c0.42,1.55,0.84,3.11,1.26,4.66c7.83-3.42,15.04-8.05,21.49-13.66c0.96-0.83,0.98-2.71,0-3.54c-6.63-5.58-14.2-9.81-22.45-12.47
			c-0.44,1.61-0.89,3.21-1.33,4.82c3.88,1.15,7.47-0.77,10.44-3.14c2.91-2.33,5.58-5.02,8.18-7.68
			c5.33-5.44,10.21-11.29,14.67-17.46c0.58-0.8,0.41-2.4-0.39-3.03c-4.07-3.18-8.84-4.46-13.95-3.77c-1.34,0.18-2.07,1.9-1.75,3.08
			c0.4,1.45,1.73,1.93,3.08,1.75c3.13-0.42,6.6,0.54,9.08,2.49c-0.13-1.01-0.26-2.02-0.39-3.03c-3.94,5.45-8.27,10.62-12.94,15.47
			c-2.3,2.39-4.69,4.71-7.15,6.94c-1.95,1.77-4.67,4.42-7.55,3.57c-3.1-0.91-4.38,3.84-1.33,4.82c7.39,2.38,14.3,6.18,20.24,11.18
			c0-1.18,0-2.36,0-3.54c-6.12,5.32-13.05,9.63-20.47,12.88c-1,0.44-1.42,1.85-1.15,2.82c0.32,1.15,1.3,1.69,2.41,1.84
			c6.49,0.85,12.99,1.71,19.48,2.56c-0.83-0.83-1.67-1.67-2.5-2.5c0.35,9.06,0.23,18.12-0.33,27.17c-0.11,1.73,1.68,2.71,3.16,2.41
			c14.88-2.95,29.75-5.89,44.63-8.84c-1.03-0.58-2.05-1.16-3.08-1.75c3.49,11.61,7.8,22.95,12.85,33.97c0.57,1.25,2.33,1.5,3.42,0.9
			c6.55-3.61,12.69-7.92,18.35-12.81c1.02-0.88,0.91-2.63,0-3.54C428.8,224.2,427.3,224.33,426.27,225.21L426.27,225.21z"/>
	</g>
</g>
<g>
	<g>
		<path class="st1" d="M99.27,208.5c1.73,1.24,3.38,2.6,4.93,4.06c0.75,0.7,1.48,1.42,2.18,2.17c0.2,0.21,0.67,0.93,0.95,1.01
			c-0.11-0.54,0.03-0.97,0.41-1.28c-0.09,0.13-0.18,0.18-0.29,0.16c-1.67,0.34-3.33,0.94-4.99,1.37c-1.83,0.48-3.66,0.95-5.48,1.46
			c-7.03,1.97-14.27,4.73-18.99,10.59c-1.01,1.25-0.99,3.02,0.51,3.93c10.63,6.42,21.26,12.84,31.88,19.26
			c0.2-1.52,0.4-3.05,0.6-4.57c-7.86,2.85-15.33,6.7-22.13,11.57c-1.62,1.16-3.63,2.34-4.21,4.39c-0.63,2.21,0.81,4.01,2.43,5.28
			c3.37,2.66,6.84,5.21,10.39,7.61c4.02,2.72,8.16,5.26,12.39,7.63c2.81,1.57,5.33-2.74,2.52-4.32c-4.17-2.33-8.24-4.83-12.2-7.5
			c-2.04-1.38-4.06-2.8-6.04-4.27c-0.48-0.35-4.67-3.76-4.72-3.73c0.12,0.29,0.11,0.54-0.04,0.77c0.18-0.19,0.37-0.36,0.57-0.52
			c0.39-0.32,0.83-0.61,1.24-0.9c0.85-0.61,1.71-1.21,2.58-1.79c1.99-1.33,4.03-2.57,6.11-3.73c3.99-2.22,8.14-4.12,12.43-5.67
			c1.98-0.72,2.53-3.4,0.6-4.57c-10.63-6.42-21.26-12.84-31.88-19.26c0.17,1.31,0.34,2.62,0.51,3.93c3.92-4.87,9.66-7.22,15.51-8.94
			c3.08-0.9,6.2-1.65,9.3-2.49c1.6-0.43,3.45-0.77,4.7-1.93c1.47-1.36,1.64-3.49,0.52-5.13c-1.19-1.73-2.9-3.24-4.45-4.64
			c-1.68-1.52-3.46-2.92-5.3-4.24c-1.1-0.79-2.78-0.19-3.42,0.9C97.63,206.34,98.17,207.71,99.27,208.5L99.27,208.5z"/>
	</g>
</g>
</svg>
