<?xml version="1.0" encoding="utf-8"?>
<!-- Generator: Adobe Illustrator 23.1.0, SVG Export Plug-In . SVG Version: 6.00 Build 0)  -->
<svg version="1.1" id="Layer_1" xmlns="http://www.w3.org/2000/svg" xmlns:xlink="http://www.w3.org/1999/xlink" x="0px" y="0px"
	 viewBox="0 0 500 500" style="enable-background:new 0 0 500 500;" xml:space="preserve">
<style type="text/css">
	.st0{fill:none;stroke:#231F20;stroke-miterlimit:10;}
	.st1{fill:#231F20;}
</style>
<ellipse class="st0" cx="250" cy="250" rx="183.39" ry="250"/>
<g>
	<g>
		<path class="st1" d="M321.1,20c-1.55,1.07-2.72,2.49-3.58,4.17c-0.43,0.85-0.8,1.74-1.17,2.61c-0.05,0.12-0.37,0.9-0.11,0.26
			c-0.07,0.17-0.15,0.34-0.22,0.51c-0.16,0.37-0.32,0.73-0.5,1.09c-0.17,0.34-0.35,0.68-0.56,1c-0.06,0.1-0.37,0.62-0.02,0.06
			c-0.11,0.17-0.27,0.33-0.4,0.47c-0.26,0.29-0.55,0.55-0.84,0.8c-0.45,0.39,0.44-0.27-0.06,0.04c-0.17,0.11-0.34,0.22-0.52,0.32
			c-0.07,0.04-0.46,0.31-0.53,0.27c0.1-0.04,0.19-0.08,0.29-0.12c-0.1,0.04-0.21,0.08-0.31,0.11c-0.15,0.05-0.31,0.08-0.47,0.13
			c-0.46,0.14,0.58,0.02-0.03,0c-0.12,0-0.43-0.06-0.53-0.01c0.12,0.02,0.24,0.03,0.37,0.05c-0.1-0.02-0.2-0.04-0.29-0.07
			c-0.47-0.09,0.41,0.27,0.03,0.02c-0.09-0.05-0.18-0.1-0.27-0.16c0.29,0.23,0.33,0.26,0.12,0.09c-0.99-0.85-2.58-1.04-3.54,0
			c-0.86,0.94-1.06,2.62,0,3.54c3.72,3.21,8.54,0.82,11.07-2.65c0.51-0.7,0.88-1.48,1.23-2.28c0.24-0.54,0.46-1.08,0.69-1.62
			c0.07-0.17,0.14-0.34,0.22-0.52c-0.27,0.63,0.06-0.14,0.11-0.26c0.34-0.78,0.71-1.54,1.17-2.26c0.12-0.19,0.25-0.42,0.4-0.58
			c-0.45,0.45-0.05,0.08,0.06-0.04c0.16-0.17,0.32-0.34,0.5-0.5c0.09-0.08,0.18-0.16,0.27-0.23c-0.27,0.21-0.29,0.23-0.07,0.07
			c1.07-0.74,1.67-2.23,0.9-3.42C323.83,19.83,322.25,19.21,321.1,20L321.1,20z"/>
	</g>
</g>
<g>
	<g>
		<path class="st1" d="M131.44,56.75c0.5,1.72,0.13,3.47-0.13,5.2c-0.26,1.69-0.41,3.3-0.17,5c0.5,3.52,2.88,5.98,6.38,6.6
			c1.05,0.19,2.73,0.13,3.58,0.78c0.47,0.36,0.66,1.07,0.86,1.62c0.32,0.87,0.63,1.74,0.95,2.6c1.27,3.39,2.77,6.91,5.51,9.38
			c2.92,2.64,6.96,4.15,10.85,2.97c3.07-0.93,1.76-5.76-1.33-4.82c-3.36,1.02-6.42-1.54-8.07-4.25c-1.07-1.76-1.8-3.67-2.51-5.6
			c-0.71-1.94-1.26-4.11-2.85-5.53c-1.41-1.26-3.19-1.58-4.99-1.86c-1.24-0.19-2.64-0.28-3.19-1.57c-0.65-1.51-0.31-3.32-0.07-4.88
			c0.37-2.35,0.67-4.65-0.01-6.98C135.36,52.34,130.54,53.65,131.44,56.75L131.44,56.75z"/>
	</g>
</g>
<g>
	<g>
		<path class="st1" d="M420.79,164.81c-3.83-0.29-7.61,0.66-11.28,1.65c-3.33,0.9-6.77,1.95-10.26,1.58
			c-6.53-0.68-10.86-6.81-14.33-11.74c-0.65-0.92-1.69-1.46-2.82-1.15c-1.49,0.41-2.6,1.45-3.33,2.78
			c-0.49,0.89-0.94,2.31-1.38,2.91c0.07-0.1-0.53,0.27-0.11,0.14c0.45-0.14,0.04,0.04-0.03-0.06c-0.21-0.27-1.46-0.48-1.81-0.59
			c-0.47-0.16-0.94-0.33-1.41-0.49c-2.19-0.76-4.38-1.52-6.57-2.28c-1.28-0.44-2.73,0.5-3.08,1.75c-0.38,1.38,0.47,2.63,1.75,3.08
			c2.35,0.81,4.7,1.63,7.04,2.44c2.12,0.73,4.37,1.72,6.53,0.53c1.28-0.71,2.06-1.97,2.63-3.26c0.24-0.55,0.48-1.1,0.75-1.64
			c0.08-0.14,0.16-0.28,0.25-0.42c-0.16,0.19-0.15,0.17,0.04-0.04c0.21-0.2,0.22-0.21,0.01-0.03c-0.26,0.09-0.25,0.09,0.04,0
			c-0.94-0.38-1.88-0.77-2.82-1.15c4.16,5.92,9.17,12.6,16.77,13.97c4,0.72,7.97-0.05,11.85-1.08c3.81-1.01,7.58-2.21,11.57-1.91
			c1.35,0.1,2.5-1.22,2.5-2.5C423.29,165.87,422.14,164.91,420.79,164.81L420.79,164.81z"/>
	</g>
</g>
<g>
	<g>
		<path class="st1" d="M71.99,203.37c4.02-0.39,7.39-2.43,10.17-5.29c2.69-2.77,4.63-6.15,7.18-9.04c0.58-0.66,1.2-1.29,1.85-1.88
			c0.3-0.27,0.6-0.52,0.92-0.76c0.09-0.07,0.67-0.42,0.68-0.45c-0.01,0.19-0.86-0.23-0.88-0.01c-0.01,0.1,0.62,0.79,0.68,0.88
			c0.34,0.47,0.67,0.94,1.01,1.41c0.67,0.94,1.35,1.88,2.02,2.82c1.39,1.94,2.79,3.89,4.18,5.83c0.62,0.87,1.2,1.88,2.15,2.44
			c1.13,0.66,2.46,0.5,3.57-0.11c0.8-0.44,1.37-0.91,2.31-1.01c0.95-0.1,1.91,0.08,2.79,0.41c2.08,0.78,3.77,2.4,5.38,3.87
			c2.38,2.16,5.92-1.36,3.54-3.54c-2.36-2.15-4.85-4.32-7.96-5.28c-1.39-0.43-2.89-0.58-4.33-0.41c-0.74,0.09-1.44,0.23-2.13,0.5
			c-0.43,0.17-0.88,0.36-1.28,0.59c-0.2,0.12-0.89,0.34-0.5,0.38c0.42,0.11,0.84,0.23,1.26,0.34c0.33,0.42,0.32,0.39-0.05-0.11
			c-0.19-0.27-0.38-0.54-0.58-0.8c-0.29-0.4-0.58-0.8-0.87-1.21c-0.67-0.94-1.35-1.88-2.02-2.82c-1.35-1.88-2.69-3.75-4.04-5.63
			c-1.18-1.65-2.48-3.54-4.78-3.46c-2.01,0.07-3.85,1.82-5.21,3.14c-2.7,2.63-4.6,5.89-7,8.77c-2.04,2.45-4.72,5.12-8.08,5.44
			c-1.34,0.13-2.5,1.06-2.5,2.5C69.49,202.12,70.64,203.5,71.99,203.37L71.99,203.37z"/>
	</g>
</g>
</svg>
