<svg xmlns="http://www.w3.org/2000/svg" viewBox="0 0 292.73 334.83"><defs><style>.cls-1{fill:#ffd34e;}.cls-2{fill:#f7e967;}.cls-3{fill:#826b27;}.cls-4{fill:#e5bd46;}</style></defs><title>chick</title><g id="Layer_2" data-name="Layer 2"><g id="chick"><path class="cls-1" d="M292.3,129.26a21.31,21.31,0,0,0-.63-2.85c-.5-1.72-1.21-3.37-1.83-5-.56-1.48-1.12-3-1.62-4.48a31.32,31.32,0,0,0-1.56-3.85,19,19,0,0,0-2.27-3.23,17.32,17.32,0,0,0,2.14-1,18,18,0,0,0,2.3-1.67,10.4,10.4,0,0,0,1.56-1.87,3.15,3.15,0,0,0,.31-.57,6.92,6.92,0,0,0,.81-3c.24-2.42-1.21-4.63-2.93-6.17-.91-.82-1.9-1.55-2.88-2.29a36.32,36.32,0,0,0-6.85-4.85c-.45-.22-.89-.4-1.34-.57l-.39-.81c.57-.94,1.13-1.88,1.68-2.84a37.33,37.33,0,0,0,2.68-5.55,8.08,8.08,0,0,0,.35-1.28,9.82,9.82,0,0,0,.09-4.11,7.45,7.45,0,0,0-3.67-4.78,9.25,9.25,0,0,0-4.9-1.21,19.09,19.09,0,0,0-3.6.54,20.38,20.38,0,0,0-5.22,2l-.45.26c-.05-.81-.12-1.63-.2-2.44a24.61,24.61,0,0,0-1.44-6.89c-.31-.78-.63-1.57-1-2.32a9.26,9.26,0,0,0-1.58-2.1,9,9,0,0,0-2.35-1.76,8.63,8.63,0,0,0-3.92-1h-.41A9.73,9.73,0,0,0,245.49,58a21.19,21.19,0,0,0-1.38,3c-.25.61-.46,1.23-.68,1.85a3.65,3.65,0,0,0-.69,1,21.05,21.05,0,0,0-1.13,3.56c-.08.3-.14.61-.21.91l-.5,1.32c-.74,1.87-1.48,3.74-2.07,5.67-.31,1-.52,2.1-.78,3.15s-.51,1.95-.77,2.92c-.28,1.12-.6,2.22-.77,3.36-.1.69-.18,1.38-.27,2.07a1.79,1.79,0,0,0,0,.23l-.15,1.13-.18,1.13A2.15,2.15,0,0,0,237.36,92a1.67,1.67,0,0,0,.31,0,3.18,3.18,0,0,0,.46.63,12.67,12.67,0,0,0,1,1l.71.71c.65.74,1.27,1.49,1.92,2.23a2.91,2.91,0,0,0,.37.33l.24.23a3.18,3.18,0,0,0,.63.46l2.08,2.76c.28.37.59.72.88,1.09.55.86,1.1,1.73,1.63,2.6.69,1.31,1.45,2.6,2.19,3.88.17.3.36.59.54.89,1.08,2,2.16,4.06,3.18,6.12s2,3.95,3.09,5.91c.72,1.34,1.46,2.67,2.27,4,.37.77.73,1.55,1.1,2.33.59,1.26,1.24,2.5,1.83,3.76,1.14,2.43,2.28,4.87,3.45,7.28.61,1.25,1.16,2.51,1.88,3.7.58,1,1.15,1.89,1.66,2.88a8.48,8.48,0,0,0,2.17,2.92,6.69,6.69,0,0,0,2,1.8l1.56.66a6.66,6.66,0,0,0,3.49,0,4.73,4.73,0,0,0,2.06-1c.35-.15.69-.31,1-.49s.75-.45,1.14-.65c.84-.45,1.68-.9,2.51-1.37a16.52,16.52,0,0,0,6.33-6.22,14.65,14.65,0,0,0,1.73-7.13A31.86,31.86,0,0,0,292.3,129.26Z"/><path class="cls-1" d="M28.1,81.45a13.84,13.84,0,0,0-2.56.3,11.4,11.4,0,0,0-2.52.88l-.39.17a9.8,9.8,0,0,0-1.77,1.09l-.21.15a13.28,13.28,0,0,0-2.83,2.83A17.23,17.23,0,0,0,15.6,90.5a13,13,0,0,0-1,3.43A18.22,18.22,0,0,0,14.33,98a19.78,19.78,0,0,0,1.85,6.22c.17.4.35.79.53,1.17a15.6,15.6,0,0,0-5,1.36,18,18,0,0,0-4.85,3.53,26.85,26.85,0,0,0-3.71,4.49A16.94,16.94,0,0,0,1,120.05a36,36,0,0,0-.91,5.56,12.88,12.88,0,0,0,.75,5.94,17,17,0,0,0,2,3.77,18,18,0,0,0,3.66,3.82,15.8,15.8,0,0,0,2.86,1.68,2.7,2.7,0,0,0-.18.25,29.25,29.25,0,0,0-2.71,5.44,57.1,57.1,0,0,0-2.68,9.23A42.55,42.55,0,0,0,3,162.33c-.1,1.72-.18,3.58-.11,5.46.06,1.62.27,3.27.47,4.86l.08.58a43.92,43.92,0,0,0,1,5.88A23.79,23.79,0,0,0,10,189.55a20.35,20.35,0,0,0,2.46,2.24,31.38,31.38,0,0,0,6.18,4,16.31,16.31,0,0,0,4.17,1.44,17.67,17.67,0,0,0,3.2.37,7.71,7.71,0,0,0,2.47-.37,4.9,4.9,0,0,0,3.58-4.7,5.34,5.34,0,0,0,0-.69,9.45,9.45,0,0,0,.56-.9c.52-1,1-2.07,1.45-3.09l.36-.79a41.48,41.48,0,0,0,1.89-4.85c.43-1.35.84-2.71,1.25-4.07l.69-2.38c.56-2,1.15-4,1.84-6a40.73,40.73,0,0,0,1.13-4.27l0-.2c.33-1.52.67-3,1-4.55.47-2,1-4,1.58-6,.35-1.25.7-2.49,1-3.75s.65-2.59,1-3.89c.16-.65.31-1.3.47-1.94.25-1,.5-2,.76-3a21.4,21.4,0,0,1,.6-2.08c.21-.47.43-1,.61-1.49s.44-1.33.64-2l.13-.46q.7-2.35,1.43-4.71l.34-1.09c.33-1.09.67-2.18,1-3.27.22-.76.41-1.53.6-2.3,0-.22.11-.44.17-.67s.17-.62.24-.94a2.13,2.13,0,0,0,.33-1.24l0-.29v-.29c0-.09,0-.18,0-.27a4.92,4.92,0,0,0-.1-.94c-.07-1.15-.16-2.51-.35-3.86-.23-1.61-.52-3.25-.82-4.92-.17-1-.35-1.9-.53-2.84-.14-.77-.29-1.53-.42-2.3l-.1-.51c-.27-1.51-.55-3.07-1-4.57a30.51,30.51,0,0,0-2.29-5.77,19.77,19.77,0,0,0-1.33-2.11l-.09-.13c-.64-.93-1.33-1.86-2.11-2.83a21,21,0,0,0-4.7-4.15c-1.59-1.1-3.16-2.08-4.66-2.92a14.21,14.21,0,0,0-6.13-1.81H28.1"/><path class="cls-1" d="M126.76,25.16c-.19-.69-.39-1.38-.56-2.08-.27-1.09-.51-2.19-.7-3.29,0-.5-.1-1-.13-1.51,0-.91.11-1.82.22-2.74l.06-.42c.07-.47.14-.93.2-1.4a3.12,3.12,0,0,0-.9-2.31c.48-1,.94-2,1.33-3.05a5.42,5.42,0,0,0-.16-4.75,4.93,4.93,0,0,0-5.79-2.12,10.14,10.14,0,0,0-2,1A5.13,5.13,0,0,0,113.91,0a5,5,0,0,0-2.52.68,6.08,6.08,0,0,0-2.34,2.63,35.87,35.87,0,0,0-1.67,4.4,27.82,27.82,0,0,0-1,4c0,.17-.06.35-.08.52L104.72,11A7.6,7.6,0,0,0,102.61,10a5.24,5.24,0,0,0-2.75-.06A4.35,4.35,0,0,0,97.16,12a4.61,4.61,0,0,0,0,4.59A6.3,6.3,0,0,0,99,18.49c.17.15.33.31.49.48a24.9,24.9,0,0,1,2.13,4.1c.35.9.66,1.81.93,2.74a4.29,4.29,0,0,0-.68,3.64A4.59,4.59,0,0,0,105,32.51a9.39,9.39,0,0,0,4.5.12,4.29,4.29,0,0,0,3-3c1.22.25,2.43.57,3.63.89s2.17.55,3.21.91a5.36,5.36,0,0,0,1.51.7,4.38,4.38,0,0,0,5.34-3l0-.19a4.45,4.45,0,0,0,.77-1.35A4.07,4.07,0,0,0,126.76,25.16Z"/><path class="cls-2" d="M146.07,15.23l-1.51.15-2.2.21-2.68.26-1,.08c-1.59.14-3.23.27-4.84.54a56.47,56.47,0,0,0-10,2.88l-1.4.5c-1,.37-2.1.76-3.14,1.17-1.4.56-2.87,1.06-4.35,1.51a51,51,0,0,0-5.49,2.07,38.9,38.9,0,0,0-4.36,2.1c-1,.58-2,1.25-2.88,1.9l-.87.62c-1.3.9-2.59,1.72-4.15,2.7a32.43,32.43,0,0,0-7.61,6.32c-1.13,1.33-2.25,2.72-3.43,4.27-.92,1.15-1.81,2.28-2.63,3.45l-.11.13-.1.14A50.66,50.66,0,0,0,80,50.88c-.56.95-1.11,2-1.62,3-.23.37-.46.74-.68,1.12a41.41,41.41,0,0,0-2.61,5.2c-.51,1.23-.94,2.5-1.36,3.74l-.23.7-.63,1.79c-.32.88-.65,1.79-.94,2.7-.48,1.54-1,3.07-1.46,4.6l-.28.87c-.4,1.23-.81,2.49-1.12,3.77-.2.85-.38,1.7-.57,2.54-.22,1-.45,2.07-.7,3.1a53,53,0,0,0-1,5.57c-.07.55-.16,1.09-.24,1.63-.1.71-.21,1.42-.3,2.13a24,24,0,0,0-.16,3.85c0,1.09.09,2.08.2,3a5.67,5.67,0,0,1,0,.85c-.11.23-.23.45-.35.67-.2.38-.41.76-.59,1.15l-.08.18a11.25,11.25,0,0,0-.66,1.66,8.21,8.21,0,0,0-.22,1.3l0,.12a7.49,7.49,0,0,1-.64,1c-.82,1-1.66,2.11-2.58,3.1a34.31,34.31,0,0,1-3.59,3.25,72.35,72.35,0,0,0-7.32,7.2,82,82,0,0,0-7.13,9c-2.29,3.36-4.26,6.52-6,9.67-.76,1.34-1.42,2.77-2.07,4.14l-.43.91c-.76,1.61-1.5,3.39-2.34,5.6-1.46,3.83-2.61,7.31-3.53,10.62-1,3.54-1.92,7-2.62,10.49-.8,4-1.48,8.11-2,12.31a43,43,0,0,0-.41,5.15c0,2,0,4,.06,6A94.69,94.69,0,0,0,25,206.84a84.4,84.4,0,0,0,2.28,10.21c.49,1.69,1,3.49,1.66,5.48.56,1.8,1.24,3.58,1.94,5.39s1.44,3.47,2.51,5.64A49.71,49.71,0,0,0,36,238.35a83.47,83.47,0,0,0,6.45,8.49l.79,1q2.64,3.19,5.31,6.39l1.91,2.3c2.43,2.92,4.77,5.49,7.15,7.88,3.09,3.09,5.9,5.73,8.58,8,2.34,2,4.89,3.9,7.35,5.7l2,1.49a89.19,89.19,0,0,0,9,5.78l.52.3c1.41.81,2.88,1.64,4.37,2.34l2.75,1.29c.81.39,1.67.72,2.5,1l.88.35a89.88,89.88,0,0,0,10.6,3.35c1.35.36,2.74.66,4.08.94l1.43.32c1.53.33,3.14.65,4.92,1,4.26.78,8.1,1.45,12,1.9s7.6.69,11.15.76h1.76c3,0,6-.13,9.51-.32l6.51-.35,4.83-.25c4.18-.23,7.37-.5,10.35-.9a113.53,113.53,0,0,0,12-2.06c3.49-.86,6.85-1.95,10.83-3.31,3.3-1.13,7-2.42,10.58-4,3.16-1.42,6.82-3.09,10.34-5s6.75-4.08,9.75-6.12l.15-.1c1.56-1,3.16-2.14,4.65-3.32s3.08-2.44,4.54-3.68c2.64-2.23,5.34-4.61,8.25-7.27s5.39-5.28,7.78-7.86c1-1.13,2.1-2.23,3.16-3.34,1.49-1.56,3-3.16,4.5-4.79a113.23,113.23,0,0,0,7.29-9.19c.78-1.07,1.53-2.2,2.25-3.3.31-.47.62-1,.94-1.41,1-1.46,1.93-3,2.85-4.59a83.62,83.62,0,0,0,5-10c1.65-4,2.88-7.2,3.88-10.18a94.49,94.49,0,0,0,3-10.56,41.54,41.54,0,0,0,.82-5.94c0-.8.06-1.62.06-2.49v-.18c.09-1.64.07-3.29,0-4.83-.05-1.89-.14-3.42-.3-4.81a37.35,37.35,0,0,0-.58-3.71c-.12-.56-.26-1.12-.4-1.68-.08-.33-.16-.65-.23-1l-.16-.69-.13-.56a73.44,73.44,0,0,0-1.88-7.91l0-.09,0-.18,0-.19-.18-.88c-.23-1.1-.46-2.24-.75-3.36-.18-.69-.38-1.37-.58-2s-.46-1.59-.66-2.4c-.15-.61-.29-1.22-.42-1.84-.18-.81-.36-1.64-.58-2.46s-.5-1.65-.77-2.45-.53-1.61-.75-2.43c-.41-1.51-.82-3-1.36-4.48a48.8,48.8,0,0,0-3.12-6.52l-.6-1.11c-.44-.81-1-1.59-1.48-2.34-.18-.25-.35-.51-.53-.77a29.48,29.48,0,0,1-2-3.71l-.29-.61a22.8,22.8,0,0,0-1.71-3.24c-.36-.54-.75-1.07-1.13-1.59s-.62-.85-.92-1.28c-.74-1.06-1.51-2.12-2.31-3.17l-1.1-1.41c-1.24-1.66-2.44-3.39-3.6-5.06l-.18-.26c-1-1.5-2-2.83-3.06-4.08l-.83-1c-.48-.58-1-1.16-1.42-1.75s-1-1.41-1.52-2.13l-.26-.37c-1.2-1.71-2.24-3.09-3.26-4.32a29.17,29.17,0,0,0-2.73-2.88,39.36,39.36,0,0,0-3.15-2.51l-.6-.45c-.68-.56-1.35-1.16-2-1.72a41.7,41.7,0,0,0-3.37-2.71c-.84-.61-1.73-1.18-2.56-1.71a22,22,0,0,0-4.2-1.88,52.49,52.49,0,0,0-5.2-1.47A31.42,31.42,0,0,0,215,78.26c-1.26-.16-2.55-.25-3.79-.34l-1.16-.08-.43-.12-.12-.06h0l-.07-.07c-.11-.19-.22-.39-.32-.59a33.62,33.62,0,0,1-1.46-6.37l-.15-1.18c-.2-1.71-.4-3.42-.63-5.12a22.16,22.16,0,0,0-.67-3.65,28.06,28.06,0,0,0-1.52-4,24.27,24.27,0,0,0-3.89-5.77c-.94-1.07-1.92-2.14-2.88-3.16l-.32-.34c-.88-1-1.7-2-2.53-3.07l-.66-.86-1-1.25c-1.78-2.39-3.38-4.58-4.88-6.71A28.22,28.22,0,0,0,184.73,31c-.92-.86-1.95-1.75-3.23-2.78l-2.44-2c-1.75-1.45-3.56-2.95-5.41-4.35a21.54,21.54,0,0,0-4.17-2.43c-1.44-.66-2.92-1.28-4.23-1.83A31.23,31.23,0,0,0,160,15.77a38.06,38.06,0,0,0-5.58-.86c-.68-.05-1.4-.08-2.2-.08-2.06,0-4.15.21-6.17.4m66.69,242.09-.08-.41c-.11-.55-.21-1.1-.3-1.66a41.85,41.85,0,0,1-.46-4.69,28.81,28.81,0,0,1,.33-5,19.85,19.85,0,0,1,1.19-4.23,24.45,24.45,0,0,1,1.24-2.77,14.41,14.41,0,0,1,1.58-2.3,23.05,23.05,0,0,1,3.86-3.51,17.62,17.62,0,0,1,5.31-2.6,15,15,0,0,1,2.5-.65l.35-.06,1.06-.14.47,0a9.26,9.26,0,0,1,1.26.12h.1a9.47,9.47,0,0,1,2.79.92,13.32,13.32,0,0,1,2.45,1.68l.18.15a15.53,15.53,0,0,1,1.39,1.25,5.15,5.15,0,0,1,.47.6c.1,0,.16.13.22.23a4.63,4.63,0,0,1,.29.53l.2.37a5.38,5.38,0,0,1,.2.51.23.23,0,0,1,.07.1,1.2,1.2,0,0,1,.09.55v.44a2.11,2.11,0,0,1,0,.25c0,.23-.05.47-.06.7s0,.55-.07.82,0,.38-.07.57l-.06.36c0,.28-.08.56-.14.84l-.07.31c0,.14-.05.28-.08.42l-.09.34c0,.11-.06.23-.1.42s-.07.35-.11.49l-.05.24c0,.1,0,.21-.07.31s0,.21-.07.32-.08.3-.12.44-.08.26-.13.39-.07.21-.1.31l-.05.14c-.07.22-.14.44-.23.65l-.11.29c0,.11-.09.21-.13.32l-.1.31-.11.32c-.07.19-.16.37-.24.56l-.05.09-.15.31-.14.28-.28.58c-.07.15-.14.3-.22.45l-.08.16-.16.31,0,.08-.12.24-.15.22-.15.23a1.73,1.73,0,0,1-.17.21l-.07.07-.13.15a.26.26,0,0,1-.19.1.21.21,0,0,1-.13-.05.22.22,0,0,1-.08-.25s-.06-.05-.09-.12l-.07-.13-.09-.13a.8.8,0,0,0-.08-.14l-.1-.17-.05-.08,0-.08-.05-.1,0-.1a2.06,2.06,0,0,1-.11-.18l-.14-.21-.11-.15,0-.08-.17-.28-.06-.09-.11-.17-.19-.24-.22-.28-.15-.21-.15-.21-.22-.29a3.19,3.19,0,0,1-.32-.43c-.06-.08-.1-.16-.15-.24a2.72,2.72,0,0,0-.15-.25l-.13-.18-.08-.09-.07-.09a.79.79,0,0,1-.12-.13.21.21,0,0,1-.08-.11,4.46,4.46,0,0,1-.34-.42,4.35,4.35,0,0,1-.28-.44l-.09-.16-.12-.22a4.45,4.45,0,0,0-.38-.58.94.94,0,0,1-.12-.18L230,243c-.07-.09-.13-.19-.2-.3a1,1,0,0,1-.12-.28l-.06-.13-.08-.2a1.43,1.43,0,0,1-.08-.22c0-.08-.06-.17-.1-.26l-.06-.13-.05-.11-.12-.26-.13-.31,0-.09-.05-.12,0-.08-.11-.17-.08-.13-.06-.11-.06-.08-.06-.12h0v0l-.06-.06-.06-.09-.06-.1-.06-.09c-.07-.09-.15-.2-.23-.29l-.07-.06-.16-.14a1.47,1.47,0,0,1-.33-.23,1.66,1.66,0,0,0-.3-.22H227a1.45,1.45,0,0,0-.37-.12h-.12l-.13,0-.1,0h-.13l-.18,0h-.55l-.09,0-.14,0-.17,0-.2,0a2.88,2.88,0,0,0-1.06.54,1,1,0,0,1-.17.19l-.08.08a.75.75,0,0,0-.12.14l-.09.12a.18.18,0,0,1-.1.11l0,.13a2.12,2.12,0,0,1-.14.37h0l0,.11-.06.22-.05.15a4.3,4.3,0,0,0-.1.94c0,.12,0,.24,0,.36l0,.18a3.91,3.91,0,0,0,.07.45l0,.17a2.19,2.19,0,0,0,0,.27l0,.17.06.28,0,.15.06.22.07.23a2,2,0,0,0,.08.22l.06.18,0,.12c.07.19.14.38.22.57l.11.29.1.28.1.23.1.24a1.54,1.54,0,0,0,.08.19l0,.08,0,.09.06.14c0,.07.06.13.12.28l.08.18.17.36.05.08.08.15.08.18.14.23a.77.77,0,0,0,.07.16l.06.12.06.12a.61.61,0,0,0,.07.14c0,.07.07.14.13.28l.06.13a.89.89,0,0,1,.08.17,2.2,2.2,0,0,0,.15.31l.06.12a.35.35,0,0,1,.05.11h0a2.57,2.57,0,0,0,.22.32,3.51,3.51,0,0,1,.23.37l.09.16c.05.08.09.18.14.27l.07.15.1.2.1.21.11.24.12.25.1.22.1.23a3.31,3.31,0,0,1,.15.33l0,.09,0,.09.18.43.09.17.06.13a2,2,0,0,0,.1.21.37.37,0,0,1,0,.22.26.26,0,0,1,.07.15c0,.14-.08.24-.26.28l-.38.11-.25.08-.24.06-.39.12-.2.09-.09,0-.21.08-.16.07-.15.05-.36.14-.33.14-.12,0-.3.12-.09,0-.27.12-.2.09-.2.08-.54.25-.19.08-.35.16-.44.22-.49.24-.28.13-.23.12-.24.12-.3.14c-.14.08-.28.14-.43.21l-.12.06-.23.11a1.67,1.67,0,0,1-.23.12l-.14.06-.15.07-.14.07-.16.07-.14.06-.44.22a3.55,3.55,0,0,1-.55.28l-.27.12-.29.13a3.09,3.09,0,0,1-.57.23l-.39.12-.13,0-.17,0-.11,0h-.44a2.81,2.81,0,0,1-2.8-2.08m-145.45.74-.07-.08-.14-.13-.16-.06-.14-.08h0l-.11-.07a.19.19,0,0,1-.14-.05c-.2-.17-.42-.33-.63-.48l-.33-.24c-.34-.26-.67-.52-1-.8a5.14,5.14,0,0,1-.42-.38l-.22-.15-.26-.19-.38-.28a2.05,2.05,0,0,1-.83-.29,2.2,2.2,0,0,1-1-1.39,2.15,2.15,0,0,1,.23-1.67l.35-.59a15.05,15.05,0,0,1,2.89-3.87,13.77,13.77,0,0,1,5.34-2.51,17.36,17.36,0,0,1,4.1-.72h.58a16.16,16.16,0,0,1,3.14.32,11.81,11.81,0,0,1,3.6,1.35,15.24,15.24,0,0,1,2,1.37,8.42,8.42,0,0,1,1.21,1.12A9.1,9.1,0,0,1,86,249.86c.19.39.36.79.52,1.19a7.7,7.7,0,0,1,.43,1.61,30.71,30.71,0,0,1,.37,4.18,20.35,20.35,0,0,1-.21,3.77,13.84,13.84,0,0,1-.92,3.13,2.77,2.77,0,0,1-.67,1.16l-.27.2-.27.2a1.75,1.75,0,0,1-.59.24h0a.38.38,0,0,1,0,.1.26.26,0,0,1-.27.2h0l-.21,0-.14,0-.14,0-.18,0-.19,0-.08,0h-.1l-.42-.08h-.09l-.2,0-.25-.06-.15,0-.14,0-.09,0-.17,0-.54-.08a2.33,2.33,0,0,1-.47-.11l-.25-.07-.13,0-.32-.1-.6-.15-.4-.11-.11,0-.12,0-.31-.08-.24-.07-.43-.11-.1,0-.29-.08a8,8,0,0,1-.76-.3c-.19-.1-.38-.22-.56-.33l-.12-.08-.64-.41a1.35,1.35,0,0,1-.26-.15l-.36-.21h0l-.09,0a3,3,0,0,1-.66-.46,5.38,5.38,0,0,1-.54-.64.23.23,0,0,1-.1,0,.29.29,0,0,1-.1-.16.31.31,0,0,1,0-.18l.07-.07a.44.44,0,0,1,.08-.16s0-.07.06-.09a.41.41,0,0,1,.1-.09l.09-.08.07-.05.13-.12a1.92,1.92,0,0,0,.18-.22,2.67,2.67,0,0,1,.24-.32,1.24,1.24,0,0,0,.16-.19l.14-.17a1.26,1.26,0,0,0,.16-.22l.06-.07.09-.11.05-.09,0-.08.08-.1,0-.09,0-.08.09-.14.06-.09,0-.05,0-.05,0-.08.08-.15a1,1,0,0,1,.11-.21.23.23,0,0,1,0-.1l0-.08.08-.13.07-.11a.35.35,0,0,1,0-.08,1.08,1.08,0,0,1,.18-.26l.12-.13.18-.14.17-.1.07,0,.09-.08.16-.1.09-.08.12-.09.09-.08.09-.06.1-.08.08-.06.1-.07.1-.06.07,0,.21-.15.09-.06.11-.09.1-.09.11-.09.08-.08.07-.07.16-.17.08-.07.09-.07a1.12,1.12,0,0,0,.14-.15l.24-.21.08-.07.1-.06.06-.08.09-.12.11-.12.08-.09,0-.13,0-.17a2.18,2.18,0,0,1,.09-.29l0-.11,0-.09c0-.22,0-.45-.06-.66l-.06-.32,0-.11-.11-.17-.06-.11a4,4,0,0,0-.23-.34.46.46,0,0,1-.12-.18l-.14-.18-.15-.22a1.24,1.24,0,0,1-.1-.2l0-.08h0l-.1,0h-.1a1.2,1.2,0,0,1-.24,0h-.09l-.2-.05-.26-.08-.15-.05-.33-.06a.45.45,0,0,1-.16,0,.1.1,0,0,1-.07-.07h0l-.2.05-.13,0a.13.13,0,0,1-.09,0l-.1.07-.15.08-.17.08-.16.06a1,1,0,0,1-.23.12l-.08.05-.08,0-.13.1-.13.11c-.09.1-.19.2-.28.31l-.06.07-.2.22a3.71,3.71,0,0,1-.39.35l-.12.09-.16.12a1,1,0,0,0-.24.17l-.09.08-.23.22-.09.08-.19.14-.5.35-.09.06-.18.12a3.09,3.09,0,0,0-.29.27l-.07.07-.14.14-.13.11-.27.24-.18.16-.09.07-.18.15a3.3,3.3,0,0,1-.22.3,1.47,1.47,0,0,1-.38.32l-.09.08a1,1,0,0,1-.19.17.34.34,0,0,1-.12,0h0l-.13.16-.09.1-.18.2-.3.28-.19.16-.12.09-.08.07-.14.13-.22.24a4,4,0,0,0-.27.34l-.09.09-.06.08-.22.32a.25.25,0,0,1,0,.13.28.28,0,0,1-.19.09c-.06,0-.11,0-.22-.14a.21.21,0,0,1-.13,0h0a.25.25,0,0,1-.16-.09"/><path class="cls-1" d="M89.52,131.18a10.77,10.77,0,0,0-1.64.79,10.17,10.17,0,0,0-1.49,1.2,9.56,9.56,0,0,0-1.24,1.59l-.26.49c-.22.49-.42,1-.62,1.46a9.27,9.27,0,0,0-.35,3.7,13.36,13.36,0,0,0,.32,1.91,6.61,6.61,0,0,0,1.37,2.49,6.92,6.92,0,0,0,3,2.11,5.07,5.07,0,0,0,1.42.62,8.33,8.33,0,0,0,4.43-.09,12.81,12.81,0,0,0,2.08-.9,8.51,8.51,0,0,0,1.12-.71,14.49,14.49,0,0,0,1.43-1.16,6.68,6.68,0,0,0,1.54-2.48,7,7,0,0,0,.38-2.46,4.14,4.14,0,0,0-1.1-2.92c-.16-.42-.37-.82-.55-1.22a5.68,5.68,0,0,0-.59-.91l-.67-.87a3.83,3.83,0,0,0-1.26-1.14,5.75,5.75,0,0,0-1.68-.84,7.38,7.38,0,0,0-1.29-.64,6,6,0,0,0-2.25-.44,5.65,5.65,0,0,0-2.13.42"/><path class="cls-1" d="M126.13,127.9l-.84,0a6,6,0,0,0-2.92.78,7,7,0,0,0-2.14,2.19,9.5,9.5,0,0,0-1.22,2.55,7.61,7.61,0,0,0-.28,2.38,5.81,5.81,0,0,0,0,.72,6,6,0,0,0,.18,2.19,7.44,7.44,0,0,0,.67,1.69l.18.26a5.78,5.78,0,0,0,2,2,6.11,6.11,0,0,0,4,1l1.5-.21a5.64,5.64,0,0,0,3.63-3.09l.75-.59a3.24,3.24,0,0,0,.38-.36,6,6,0,0,0,1.11-1.54,6.44,6.44,0,0,0,.6-1.61,13.7,13.7,0,0,0,.2-2,6.82,6.82,0,0,0-1.16-3.68,6.26,6.26,0,0,0-5.08-2.89h-.3a6.72,6.72,0,0,0-1.35.14M125,134.26h0m.29.19.33.14a2.52,2.52,0,0,1-.33-.13Z"/><path class="cls-1" d="M161.73,122.49a6.51,6.51,0,0,0-3,1.61,6.17,6.17,0,0,0-1.31,1.8,9,9,0,0,0-.89,2.52,9.78,9.78,0,0,0-.19,1.91,6.37,6.37,0,0,0,0,1.07,7.42,7.42,0,0,0,1.66,4.22,5.26,5.26,0,0,0,3.67,1.7,14.52,14.52,0,0,0,1.86.22,8.37,8.37,0,0,0,5.48-2.2,7.84,7.84,0,0,0,2.75-6.08,6.36,6.36,0,0,0-1-3.25,5,5,0,0,0-1.23-1.44,7.18,7.18,0,0,0-2.91-1.66c-.49-.08-1-.16-1.47-.22l-.26-.08a6.3,6.3,0,0,0-1.79-.26,7.72,7.72,0,0,0-1.4.14"/><path class="cls-1" d="M196,109.26a8.16,8.16,0,0,0-4.19,1.4,10.44,10.44,0,0,0-1.45,1.19,7.49,7.49,0,0,0-1.12,1.57,7.67,7.67,0,0,0-.73,5.19,7.07,7.07,0,0,0,1.69,3,12.71,12.71,0,0,0,1.32,1,5.86,5.86,0,0,0,4.84,1.86,3,3,0,0,0,1.26-.25,6.06,6.06,0,0,0,1.37-.71l.29-.09a7.56,7.56,0,0,0,5.26-4.7,6.2,6.2,0,0,0-3-7.32l-.07,0c-.12-.15-.25-.29-.37-.42a6,6,0,0,0-4.32-1.71,5.85,5.85,0,0,0-.73,0"/><path class="cls-1" d="M109.66,162.85a7.78,7.78,0,0,0-1.6,1.2,5.74,5.74,0,0,0-1.35,1.9c-.09.14-.17.29-.25.44a6.1,6.1,0,0,0-.58,4.45,5.57,5.57,0,0,0,.71,1.57l.21.52a8.53,8.53,0,0,0,1.52,2.16,7.2,7.2,0,0,0,2.87,1.83,5.53,5.53,0,0,0,2.74.3,9.64,9.64,0,0,0,3.44-.94,8.26,8.26,0,0,0,1.76-1.3,7.8,7.8,0,0,0,1.81-3.14,3.71,3.71,0,0,0,.18-.73,12.7,12.7,0,0,0,.24-1.94,6.25,6.25,0,0,0-1.11-3.48,4.67,4.67,0,0,0-1.1-1.32,7.41,7.41,0,0,0-2.73-1.58,8.08,8.08,0,0,0-2.92-.46q-.7-.11-1.41-.15h-.16a5.51,5.51,0,0,0-2.27.68m3.64,6.2,0,.07h0l0-.07m.13,0-.13.11h0l.14-.11m.08.22.33,0a1.88,1.88,0,0,1-.33,0m-.19,1.27h0Z"/><path class="cls-1" d="M146.88,155a6.22,6.22,0,0,0-2.24.94,6,6,0,0,0-2.14,2.15,5.7,5.7,0,0,0-.76,1.52l-.51.74a6.08,6.08,0,0,0-1,3.32c.05.6.12,1.18.22,1.77a6.61,6.61,0,0,0,1.61,2.7c.47.38.95.74,1.44,1.1l1.66.7a7.17,7.17,0,0,0,1.9.19,7.7,7.7,0,0,0,3.19-.86,8.62,8.62,0,0,0,3.74-3.77,8.71,8.71,0,0,0,1-2.48,6.53,6.53,0,0,0-.55-4.85,11.29,11.29,0,0,0-1.06-1.41,7.65,7.65,0,0,0-1.45-1.07,11.3,11.3,0,0,0-1.66-.67,4.86,4.86,0,0,0-1.52-.22,10.28,10.28,0,0,0-1.86.2m.1,8.47.25.11-.25-.11m6,.42-.1.13v0l.09-.11"/><path class="cls-1" d="M187.86,145.36a4.33,4.33,0,0,0-1.87.8,8.86,8.86,0,0,0-2,2.08,8.44,8.44,0,0,0-1.2,2.33,6,6,0,0,0-.39,2.06,10.9,10.9,0,0,0,.17,1.51,10.23,10.23,0,0,0,.72,1.83,9.79,9.79,0,0,0,.94,1.28,3.75,3.75,0,0,0,.82.77,7.76,7.76,0,0,0,1.23.9,9.81,9.81,0,0,0,1.8.76,7.45,7.45,0,0,0,2.45.27,8,8,0,0,0,2.9-.62,11.08,11.08,0,0,0,2.27-1.17l1.15-.88A7.38,7.38,0,0,0,198,156a5,5,0,0,0,.91-2.86,5.61,5.61,0,0,0-.91-2.92,3.5,3.5,0,0,0-.91-1.07,5.31,5.31,0,0,0-1.14-.82,6.19,6.19,0,0,0-1.83-.66l0,0a6.11,6.11,0,0,0-3.58-2.18c-.42-.08-.85-.15-1.28-.19l-.35,0a3.61,3.61,0,0,0-1,.14"/><path class="cls-1" d="M172.85,180.31a6.66,6.66,0,0,0-1.54.16A5.4,5.4,0,0,0,169,181.7a7.94,7.94,0,0,0-1.56,2,8.63,8.63,0,0,0-1,2.39,8.18,8.18,0,0,0,0,3.81,6.59,6.59,0,0,0,.6,1.58,8.51,8.51,0,0,0,1.19,1.78,10.47,10.47,0,0,0,2,1.83,1.83,1.83,0,0,0,.5.26,6.47,6.47,0,0,0,2.73.74,6.86,6.86,0,0,0,2.62-.38,8.57,8.57,0,0,0,5.3-5.46,7.63,7.63,0,0,0,.12-3.94,6,6,0,0,0-2.66-3.43,6.72,6.72,0,0,0-1.91-.79,6.18,6.18,0,0,0-4.06-1.77h-.08"/><path class="cls-1" d="M134.49,188.82a7.7,7.7,0,0,0-2.77,1.6,6.26,6.26,0,0,0-1.87,3.26,5.79,5.79,0,0,0-.06,2.34,6.46,6.46,0,0,0-.06,3.09,5.14,5.14,0,0,0,4.84,4.12,7.68,7.68,0,0,0,4.46-1.56,10.72,10.72,0,0,0,1.65-1.43,9.24,9.24,0,0,0,1.23-1.69,9.74,9.74,0,0,0,.8-1.92,3,3,0,0,0,.13-.66,5.63,5.63,0,0,0,0-2.55,8.75,8.75,0,0,0-.76-1.91,5.71,5.71,0,0,0-2.17-2.11,7.32,7.32,0,0,0-3.14-.88,3.46,3.46,0,0,0-.46,0,5.25,5.25,0,0,0-1.8.32m.33,6.33h0m0,.13h0v0"/><path class="cls-1" d="M151,213.82a16,16,0,0,0-2,2.42,4.08,4.08,0,0,0-.45.85,6.24,6.24,0,0,0-.85,3.16,4.38,4.38,0,0,0,.17,2.12,7.52,7.52,0,0,0,7.47,5.88,7.39,7.39,0,0,0,1.67.29,9.15,9.15,0,0,0,2.21-.21,6.37,6.37,0,0,0,2.61-1.46,8.35,8.35,0,0,0,1.35-1.6,10.81,10.81,0,0,0,1.22-2.57,8.89,8.89,0,0,0,.35-2.06,9.39,9.39,0,0,0,.08-1.4,8.24,8.24,0,0,0-1.15-4,8.43,8.43,0,0,0-3.07-3.12,6.9,6.9,0,0,0-3.38-.85,9.46,9.46,0,0,0-6.22,2.51"/><path class="cls-1" d="M223.77,238.94a.77.77,0,0,1-.17.19l-.08.08a.75.75,0,0,0-.12.14l-.09.12a.18.18,0,0,1-.1.11v0l.57-.47c.36-.26.72-.5,1.09-.72h0a2.88,2.88,0,0,0-1.06.54"/><path class="cls-1" d="M167.94,77.57l0-.09a2.55,2.55,0,0,0-.23-.62,1.65,1.65,0,0,0-.19-.27A1.89,1.89,0,0,0,167,76a1.28,1.28,0,0,0-.11-.27,1.14,1.14,0,0,0-.57-.47l-.09-.08a1,1,0,0,0-.62-.19,2.91,2.91,0,0,0-1.06.3l-.9.42a14.36,14.36,0,0,0-1.83,1c-.44.3-.87.62-1.3.94h0l-.44.18c-.86.36-1.72.66-2.53.94a9.75,9.75,0,0,0-1.51.64l-.48.26-.48.26a2.64,2.64,0,0,0,0-.71,3.06,3.06,0,0,0-.1-.41l-.06-.21c0-.17-.07-.34-.1-.52s0-.31,0-.44,0-.28,0-.42-.07-.51-.11-.77l0-.12c-.05-.45-.06-.92-.07-1.37s0-1,0-1.56-.06-.88-.1-1.31-.08-1-.1-1.42,0-.76,0-1.14v-.17c0-.28,0-.57,0-.86l0-.43c0-.28,0-.57,0-.85,0-.63,0-1.29-.07-1.94s-.15-1.25-.25-1.88l-.08-.59c-.1-.89-.15-1.8-.2-2.67s-.07-1.46-.14-2.19a1,1,0,0,0-.06-.26,2,2,0,0,0-.42-2.15,2,2,0,0,0-1.38-.57,2,2,0,0,0-1.38.57,2.13,2.13,0,0,0-.29.31c-.17.22-.36.45-.53.69s-.34.52-.5.79l-.36.64c-.17.17-.34.34-.5.52-.31.36-.62.72-.92,1.09l-.15.17-.54.57c-.53.57-1,1.17-1.53,1.76S143.65,63.4,143,64a1.28,1.28,0,0,0-.56.33c-.45.36-.91.71-1.33,1.11A12.87,12.87,0,0,0,140,66.77c-.69.85-1.36,1.72-2.05,2.57-.38.46-.76.92-1.12,1.38s-.73,1-1.07,1.47l-.17.27-.33.32c-.4.44-.76.92-1.12,1.4a.47.47,0,0,0-.07.12,1.46,1.46,0,0,0-.69.57,7.54,7.54,0,0,0-.47.77,8.8,8.8,0,0,0-.48,1.09,7.46,7.46,0,0,0-.47,2.18s0,.06,0,.09a7.69,7.69,0,0,0-.19,1.42,11.26,11.26,0,0,0,.16,2.09,18.31,18.31,0,0,0,1,3.85,1.91,1.91,0,0,0,.18.38,10.42,10.42,0,0,0,.53,1.3,12,12,0,0,0,1.55,2.34l0,.05.13.31a6.59,6.59,0,0,0,.77,1.24,17.06,17.06,0,0,0,2.37,2.51,1.75,1.75,0,0,0,.68.37l.1.08,0,.07a6.3,6.3,0,0,0,1.09,1,14.17,14.17,0,0,0,1.93,1.17c.65.35,1.33.64,2,.94l.64.26a1.29,1.29,0,0,0,.2.15.84.84,0,0,0,.21.11l.6.24h0l.26.14c.34.19.7.37,1.06.53.81.36,1.64.67,2.48,1a.08.08,0,0,0,0,0,3.61,3.61,0,0,0,1.38.59,5.62,5.62,0,0,0,1.87.19,1.86,1.86,0,0,0,.91-.25l.07,0a1.61,1.61,0,0,0,.72-.29,1.29,1.29,0,0,0,.52-.32l.13-.15a1.74,1.74,0,0,0,1-1.08c.09-.16.19-.31.29-.47.45-.59.88-1.2,1.32-1.8.93-1.16,1.9-2.29,2.78-3.5.23-.3.46-.61.67-.93a.08.08,0,0,1,0,0c.11-.15.23-.29.33-.44.67-1,1.27-2,1.88-3a15.89,15.89,0,0,0,.75-1.41,5.86,5.86,0,0,0,.47-1.35l.05-.07c.25-.48.45-1,.66-1.5,0-.1.08-.21.13-.32s.12-.19.17-.29a12.2,12.2,0,0,0,.69-1.58l.07-.17.39-1c.14-.34.28-.69.41-1l.15-.44a3.81,3.81,0,0,0,.24-.64A2.65,2.65,0,0,0,167.94,77.57Zm-14.42-3.5,0,.49a.33.33,0,0,1-.05.22c0,.35,0,.7,0,1.06a.55.55,0,0,1,.12.24,6.38,6.38,0,0,1,.1,2l0,.4c0,.17,0,.34,0,.51s0,.45,0,.67a6.65,6.65,0,0,1,.16,1.35.49.49,0,0,1-.48.48h-.12l0,.08a.61.61,0,0,1-.51.31l-.1.07a.32.32,0,0,1-.17.19l-.21.11c-.15.11-.31.21-.47.31l-.14.1-.77.5-.22.13-.14.08a.29.29,0,0,1-.08.14,7.08,7.08,0,0,1-.84.61c-.24.15-.49.3-.74.43a5.7,5.7,0,0,1-.85.39l-.6.38-.9.47a12.11,12.11,0,0,1-1.25.71.54.54,0,0,1-.28.08l-.21,0h0l-.06.05v0a0,0,0,0,0,0,0v0h0l0-.09a.48.48,0,0,1-.2-.2.54.54,0,0,1,.11-.68l0-.13a.66.66,0,0,1,0-.15s0-.11,0-.24a2.89,2.89,0,0,1,0-.29l0-.24.06-.29v-.08c0-.15,0-.29.07-.43l0-.17c0-.14,0-.27,0-.4v-.21c0-.2,0-.4,0-.6s.06-.5.1-.75l0-.16,0-.09a2.44,2.44,0,0,0,0-.27v-.35a.77.77,0,0,1,0-.4L145,80v-.09a2.68,2.68,0,0,1,.21-1l0-.35,0-.31,0-.23v-.13l0-.18c0-.18,0-.37.05-.55l.09-.57c0-.13,0-.25,0-.37l0-.17,0-.12c0-.35.1-.69.16-1l0-.29h0v-.09l0-.17.06-.34a14.9,14.9,0,0,1,.28-1.51,14.28,14.28,0,0,1,.37-1.4l.08-.28,0-.1a3.59,3.59,0,0,1,.14-.43l0-.12.17-.46q.13-.41.3-.81l.13-.33.26-.71.08-.19.42-1.12c.09-.25.18-.52.26-.78l.07-.22c.07-.19.13-.39.18-.58l.12-.35.07-.19c.13-.36.25-.73.38-1.1l.13-.36.06-.18c.08-.19.15-.39.22-.59s.18-.54.28-.82h0c.06-.19.13-.38.19-.57l.13-.4.17-.49a.31.31,0,0,1,.11-.16.32.32,0,0,1,.19-.07l0,0h0l0,0a.79.79,0,0,1,.18-.14l0,0a.78.78,0,0,1,.34-.09.46.46,0,0,1,.21,0,.5.5,0,0,1,.32-.11h0l.1-.09h0l0,0v.08a.47.47,0,0,1,.27.3,2.09,2.09,0,0,1,.08.48v.21a.47.47,0,0,1,.31.43v.12q.07.54.12,1.08l0,.36,0,.37,0,.35.07,1,.06.14a4.85,4.85,0,0,1,.1,1.67v.16l0,.33c0,.35.05.7.07,1v.19c0,.42.05.84.05,1.26,0,.23,0,.45,0,.68v.13c0,.37,0,.74,0,1.1l0,.13a8.59,8.59,0,0,1,0,1A10.71,10.71,0,0,1,153.52,74.07Z"/><path class="cls-3" d="M153.62,79.61c0-.22,0-.44,0-.67s0-.34,0-.51l0-.4a6.71,6.71,0,0,0-.09-2,.7.7,0,0,0-.13-.24c0-.36,0-.71,0-1.06a.4.4,0,0,0,.05-.22l0-.49a10.71,10.71,0,0,0-.1-2.09,6.94,6.94,0,0,0,0-1l0-.13c0-.36,0-.73,0-1.1v-.13c0-.22,0-.45,0-.68,0-.42,0-.84-.05-1.26v-.19c0-.35,0-.7-.06-1l0-.33v-.16a4.86,4.86,0,0,0-.1-1.67l-.06-.14-.07-1,0-.35,0-.36,0-.37c0-.36-.08-.72-.13-1.08v-.12a.47.47,0,0,0-.2-.35v0a.41.41,0,0,0-.1-.22v0s0,0,0-.08,0-.06,0-.09a.77.77,0,0,0-.36-.64v-.05l0,0h0l0,0a.76.76,0,0,0-.37-.11l-.07,0a.75.75,0,0,0-.26-.05,1,1,0,0,0-.35.06,1,1,0,0,0-.42.26,1.54,1.54,0,0,0-.21.31,4.13,4.13,0,0,0-.3.68.49.49,0,0,0-.18.26c-.17.54-.31,1.09-.46,1.64s-.21.89-.3,1.34l-.23.68-.07.18-.12.35c-.05.19-.12.39-.18.58l-.07.22c-.09.26-.17.53-.26.78l-.42,1.12-.08.19-.26.71-.13.33c-.11.27-.21.54-.31.81l-.16.46,0,.12c-.05.14-.09.29-.13.43l0,.1-.09.28c-.12.39-.23.82-.36,1.4a14.9,14.9,0,0,0-.28,1.51l-.06.34,0,.17v.09h0l0,.28c-.06.35-.12.69-.16,1l0,.12,0,.17c0,.12,0,.24,0,.37s-.05.38-.08.57a5.14,5.14,0,0,0-.06.55l0,.18V78l0,.23,0,.31,0,.35a2.68,2.68,0,0,0-.21,1V80l-.08.33a.77.77,0,0,0,0,.4v.35c0,.09,0,.18,0,.27v.09l0,.15c0,.25-.08.51-.11.76s0,.4,0,.6v.21c0,.13,0,.26,0,.4l0,.17c0,.14-.05.28-.07.43v.08l-.06.29,0,.24,0,.29a.78.78,0,0,0,0,.24.37.37,0,0,0,0,.15l0,.13a.56.56,0,0,0-.11.69.76.76,0,0,0,.2.2l0,.08.1,0h0l.21,0a.64.64,0,0,0,.28-.07,14.27,14.27,0,0,0,1.25-.72l.9-.47c.2-.12.41-.24.6-.38a6.79,6.79,0,0,0,.85-.38l.74-.44a7.08,7.08,0,0,0,.84-.61.38.38,0,0,0,.09-.15l.13-.07.22-.13.77-.5.15-.09.46-.32.21-.11a.32.32,0,0,0,.17-.19l.1-.07a.64.64,0,0,0,.51-.3l0-.09h.12a.49.49,0,0,0,.48-.48A7.44,7.44,0,0,0,153.62,79.61Z"/><path class="cls-3" d="M110.67,51.61h-.22a3.59,3.59,0,0,0-1.89.52,5.9,5.9,0,0,0-1.21,1,11,11,0,0,0-1,1.27,8.52,8.52,0,0,0-1.27,3,7.16,7.16,0,0,0,.09,3.09,4.44,4.44,0,0,0,.53,1.25,9,9,0,0,0,.59.79,3.3,3.3,0,0,0,.57.55,1.8,1.8,0,0,0,.26.29,3.61,3.61,0,0,0,1.12.62l.23.06.7.09a3,3,0,0,0,.94-.07,4.74,4.74,0,0,0,1.47-.7,7.07,7.07,0,0,0,1.62-1.61l0-.05.09-.11a6.77,6.77,0,0,0,1.23-1.77c.07-.14.13-.29.19-.43s.2-.42.29-.64a4.52,4.52,0,0,0,.33-1.3,5.66,5.66,0,0,0,.06-1.59c0-.32-.08-.62-.15-.94a4.62,4.62,0,0,0-.34-.87,5.3,5.3,0,0,0-1-1.42,5,5,0,0,0-.76-.59,3.75,3.75,0,0,0-.86-.4l-.22-.05c-.25,0-.51-.07-.77-.09a5.56,5.56,0,0,0-.7.08"/><path class="cls-3" d="M170.43,40.05a9.31,9.31,0,0,0-3.06,2.09,12.13,12.13,0,0,0-.89,1,6.33,6.33,0,0,0-.85,1.32,6.81,6.81,0,0,0-.54,1.71,9.2,9.2,0,0,0-.12,1,3.59,3.59,0,0,0,.05.8,4.54,4.54,0,0,0,0,.74,3.9,3.9,0,0,0,.59,1.93,4,4,0,0,0,2.74,1.89,5,5,0,0,0,1.84,0A6.77,6.77,0,0,0,172,51.9a7.89,7.89,0,0,0,1.32-.9,8.52,8.52,0,0,0,1.07-1,8.64,8.64,0,0,0,1.79-3.16,6,6,0,0,0,.23-1.73,6.7,6.7,0,0,0-.2-1.84,5.72,5.72,0,0,0-.66-1.5A4.21,4.21,0,0,0,174,40.19a4.84,4.84,0,0,0-.94-.37,3.19,3.19,0,0,0-1-.12,4.81,4.81,0,0,0-1.63.35"/><path class="cls-4" d="M79.73,252.81l-.06-.31,0-.11-.11-.17-.06-.11a4,4,0,0,0-.23-.34.46.46,0,0,1-.12-.18l-.14-.18-.15-.22s0-.08-.07-.13l-.27-.17h0a1.2,1.2,0,0,1-.24,0h-.09l-.2-.05-.26-.08-.15-.05-.33-.06a.45.45,0,0,1-.16,0h0l-.21,0-.18-.05a.11.11,0,0,1-.08,0l-.1.07-.14.08h0l-.17.08h0l-.13.05a1,1,0,0,1-.23.12l-.08.05h0l-.38.36-.17.13,0,.05-.06.08-.2.22-.17.16v0l-.21.17-.12.09-.16.12a1,1,0,0,0-.24.17l-.09.08-.23.22-.09.08-.19.14-.5.35-.09.06-.18.12-.29.27-.07.07-.14.14-.13.11-.27.24a1.74,1.74,0,0,1-.18.16l-.09.07-.17.15c-.08.1-.15.21-.23.3a1.7,1.7,0,0,1-.38.32l-.09.08a1,1,0,0,1-.19.17.34.34,0,0,1-.12,0h0l-.13.16-.09.1-.18.2-.3.28-.19.16-.12.09-.08.07h0l-.5.52-.13.18-.09.09-.06.08c-.08.11-.15.22-.22.33a.26.26,0,0,1,0,.12.28.28,0,0,1-.19.09h0a30.6,30.6,0,0,0-3.48,4.82,49.92,49.92,0,0,0-2.78,5.81c-1,2.3-2.09,4.55-3.07,6.86l.29-.68c-.61,1.41-1.28,2.78-1.88,4.19-.76,1.78-1.4,3.61-2,5.45-.5,1.51-.87,3.05-1.26,4.59-.17.68-.37,1.35-.54,2-.09.34-.15.68-.21,1s-.13.38-.2.58c-.47,1.47-.78,3-1.12,4.49-.25,1.13-.39,2.27-.53,3.41-.06.34-.13.68-.2,1-.19,1-.43,2-.62,3-.25,1.26-.49,2.5-.64,3.77-.11.74-.24,1.48-.33,2.23,0,.28,0,.55-.08.82s-.15.62-.22.94c-.26.05-.52.1-.78.17A21.7,21.7,0,0,0,45,314.05c-1.9.88-3.84,1.7-5.74,2.59A17,17,0,0,0,36.72,318c-1.27.85-2.43,1.91-3.62,2.86-.74.6-1.49,1.19-2.22,1.82-.35.29-.66.61-1,.92l-.51.49a6.17,6.17,0,0,0-1.47,2.58,4.87,4.87,0,0,0,7.16,5.51,6.16,6.16,0,0,0,1.53-1.25c.29-.36.58-.73.86-1.11.85-1,1.79-2,2.7-3,.61-.67,1.21-1.35,1.85-2a9.64,9.64,0,0,1,1-.83c1.25-.93,2.56-1.76,3.89-2.58,1-.62,2-1.31,3-1.87-.11.38-.22.77-.34,1.16a50,50,0,0,1-1.74,5.18c-.13.33-.27.65-.4,1-.65,1.45-1.46,3-1.33,4.64a3.24,3.24,0,0,0,.45,1.67,3.33,3.33,0,0,0,3.76,1.53,3.16,3.16,0,0,0,2-1.53,8.28,8.28,0,0,0,.5-1.28c.06-.23.11-.46.16-.68.11-.45.21-.89.3-1.33.23-1.21.48-2.42.66-3.63.21-1.37.5-2.73.72-4.1.22.11.44.21.65.33s.57.53.86.78c.58.48,1.19.9,1.79,1.33.39.37.74.78,1.11,1.19s.8.81,1.19,1.23c.21.3.4.62.6.92.35.54.75,1,1.11,1.57a15.13,15.13,0,0,1,.81,1.41,6.62,6.62,0,0,0,4.14,3.43A5.64,5.64,0,0,0,71,333.8a5.3,5.3,0,0,0,2.49-3.24,6.34,6.34,0,0,0-.64-4.61c-.12-.21-.27-.42-.41-.63-.27-.46-.56-.91-.85-1.37s-.68-.95-1-1.45-.67-1.17-1-1.73a26.88,26.88,0,0,0-3-3.58,20.11,20.11,0,0,0-3.2-2.62c-.66-.53-1.3-1.08-2-1.57a19.86,19.86,0,0,0-3.34-1.63l-.66-.28,0-.19c.12-.65.21-1.31.29-2,.33-2.08.87-4.13,1.28-6.21.25-1.2.62-2.35,1-3.53a29.27,29.27,0,0,0,.77-4.57c.16-.95.4-1.89.65-2.82.31-1.14.55-2.3.83-3.45s.77-2.4,1.14-3.61c.31-1,.66-2,1.05-3,.27-.6.53-1.2.79-1.81h0a1.22,1.22,0,0,0,.07-.17.37.37,0,0,0,0-.11.42.42,0,0,0,0-.1l0,0v0a.05.05,0,0,1,0,0c.3-.72.59-1.44.89-2.17s.77-1.63,1.1-2.48l.86-2.19c.6-1.49,1.09-3,1.67-4.5l.12-.27c.44-1,.94-2,1.41-2.95s.85-1.76,1.33-2.62a6,6,0,0,1,.38-.64l0,0a.29.29,0,0,1-.1-.16.31.31,0,0,1,0-.18l.07-.07a.44.44,0,0,1,.08-.16s0-.07.06-.09a.24.24,0,0,1,.11-.09l.08-.08.07-.05.13-.12a1.92,1.92,0,0,0,.18-.22,2.67,2.67,0,0,1,.24-.32,1.24,1.24,0,0,0,.16-.19l.14-.17a1.26,1.26,0,0,0,.16-.22l.06-.07.09-.11.05-.09,0-.08.08-.11,0-.08,0-.08.09-.14.06-.09,0-.05,0,0,0-.09.08-.15a1,1,0,0,1,.11-.21.23.23,0,0,1,0-.1l0-.08.08-.13.07-.11a.35.35,0,0,1,0-.08,1.08,1.08,0,0,1,.18-.26l.12-.13.18-.14a.76.76,0,0,1,.16-.1l.08,0,.09-.08.16-.1.09-.08.12-.09.09-.08.09-.06.1-.08.08-.06.1-.07.1-.06.07,0,.21-.15.09-.06.11-.09.1-.09.11-.09.08-.08.07-.07.16-.17.08-.07.09-.07a1.12,1.12,0,0,0,.14-.15l.24-.21.08-.07.1-.06.06-.08.09-.12.11-.12.08-.09,0-.13,0-.17a2.18,2.18,0,0,1,.09-.29l0-.12a.56.56,0,0,0,0-.08h0C79.78,253.26,79.76,253,79.73,252.81Z"/><path class="cls-4" d="M262.82,299.76a23.54,23.54,0,0,0-3.06-3.48,20.57,20.57,0,0,0-2.31-1.85,17.33,17.33,0,0,0-3-1.48,20.51,20.51,0,0,0-3.76-1.18,19.88,19.88,0,0,0-2.83-.35c0-.19,0-.39,0-.58-.14-1.89-.36-3.75-.61-5.62-.13-1.09-.29-2.19-.45-3.28-.35-2.67-.83-5.3-1.39-7.93a42,42,0,0,0-2.33-7.09,53.59,53.59,0,0,0-3.39-7.58,49.4,49.4,0,0,1-3.32-6.22c.15.34.29.68.43,1-.54-1.3-1.1-2.56-1.76-3.79h0a.21.21,0,0,1-.13-.05.22.22,0,0,1-.08-.25s-.06-.05-.09-.12l-.07-.13-.09-.13a.8.8,0,0,0-.08-.14l-.1-.17-.05-.08,0-.08-.05-.1,0-.1a2.06,2.06,0,0,1-.11-.18l-.14-.21-.11-.15,0-.08-.17-.28-.06-.09-.11-.17-.19-.24-.22-.28-.15-.21-.15-.21-.22-.29a3.19,3.19,0,0,1-.32-.43c-.06-.08-.1-.16-.15-.24a2.72,2.72,0,0,0-.15-.25l-.13-.18-.08-.09-.07-.09a.79.79,0,0,1-.12-.13.21.21,0,0,1-.08-.11,4.46,4.46,0,0,1-.34-.42,4.35,4.35,0,0,1-.28-.44l-.09-.16-.12-.22a4.45,4.45,0,0,0-.38-.58.94.94,0,0,1-.12-.18L230,243c-.07-.09-.13-.19-.2-.3a1,1,0,0,1-.12-.28l-.06-.13-.08-.2a1.43,1.43,0,0,1-.08-.22c0-.08-.06-.17-.1-.26l-.06-.13-.05-.11-.12-.26-.13-.31,0-.09-.05-.12,0-.08-.11-.17-.08-.13-.06-.11-.06-.08-.06-.12h0v0l-.05-.06-.07-.09-.06-.1-.06-.09c-.07-.09-.15-.2-.23-.29l-.07-.06-.16-.14a1.47,1.47,0,0,1-.33-.23,1.66,1.66,0,0,0-.3-.22H227a1.45,1.45,0,0,0-.37-.12h-.12l-.13,0-.1,0h-.13l-.18,0h-.55l-.09,0-.14,0-.17,0-.2,0a2.88,2.88,0,0,0-1.06.54,1,1,0,0,1-.17.19l-.08.08a.75.75,0,0,0-.12.14l-.09.12a.18.18,0,0,1-.1.11l0,.13a2.12,2.12,0,0,1-.14.37h0l0,.11-.06.22-.05.15a4.3,4.3,0,0,0-.1.94c0,.12,0,.24,0,.36l0,.18a3.91,3.91,0,0,0,.07.45l0,.17a2.19,2.19,0,0,0,0,.27l0,.17.06.28,0,.15.06.22.07.23a2,2,0,0,0,.08.22l.06.19,0,.11c.07.19.14.38.22.57l.11.29.1.28.1.23.1.24a1.54,1.54,0,0,0,.08.19l0,.08,0,.09.06.14c0,.07.06.13.12.28l.08.18.17.36.05.08.08.15.08.18.14.23a.77.77,0,0,0,.07.16l.06.12.06.12a.61.61,0,0,0,.07.14c0,.07.07.14.13.28l.06.13a.89.89,0,0,1,.08.17,2.2,2.2,0,0,0,.15.31l.06.12a.35.35,0,0,1,.05.11h0a2.57,2.57,0,0,0,.22.32,3.51,3.51,0,0,1,.23.37l.09.16c.05.08.09.18.14.27l.07.15.1.2.1.21.11.24.12.25.1.22.1.23a3.31,3.31,0,0,1,.15.33l0,.09,0,.09.18.43.09.17.06.13a2,2,0,0,0,.1.21.64.64,0,0,0,.12.37.22.22,0,0,1-.08.19c.51,1.45.93,2.93,1.46,4.38.66,1.84,1.52,3.6,2.31,5.39.38,1,.66,2.07,1,3.12.41,1.38.8,2.78,1.18,4.17a64.24,64.24,0,0,1,1.46,7.15c.32,2.83.55,5.67.85,8.5a33.29,33.29,0,0,1,.11,4.79c0,.64-.06,1.29-.09,1.93v.12L236,294a26,26,0,0,0-5.45,6.61,25.66,25.66,0,0,0-2.65,9.14,3.12,3.12,0,0,0,.43,1.6,3.2,3.2,0,0,0,1.89,1.45,3.17,3.17,0,0,0,3.57-1.45,29.4,29.4,0,0,0,1.69-4.44c.37-1.21.78-2.39,1.25-3.56a15,15,0,0,1,1.32-2.34c.27-.32.57-.62.87-.93a3.36,3.36,0,0,0,.15.7c.27.82.54,1.63.8,2.45a7.42,7.42,0,0,1,.28,1.24c.16,1.55.1,3.08.16,4.64a4.68,4.68,0,0,0,4.62,4.61,4.63,4.63,0,0,0,3.26-1.35,4.58,4.58,0,0,0,1.19-2,4.63,4.63,0,0,0,0-2.45,38.94,38.94,0,0,0-.88-4.82c0-.16-.1-.32-.14-.48a20.3,20.3,0,0,1,2.5,1.38c1.34,1.25,2.42,2.87,4.13,3.64a5.61,5.61,0,0,0,2.88.78,5.75,5.75,0,0,0,4.05-1.67,5.84,5.84,0,0,0,1.47-2.52A5.56,5.56,0,0,0,262.82,299.76Z"/><path class="cls-1" d="M229.81,229.3l-.47,0c-.35,0-.71.09-1.06.15l-.35.05a15,15,0,0,0-2.5.65,17.86,17.86,0,0,0-5.31,2.6,23.52,23.52,0,0,0-3.87,3.51,15,15,0,0,0-1.57,2.3,24.45,24.45,0,0,0-1.24,2.77,19.29,19.29,0,0,0-1.19,4.23,28.74,28.74,0,0,0-.33,5,42.27,42.27,0,0,0,.46,4.7q.13.83.3,1.65l.08.41a2.81,2.81,0,0,0,2.8,2.08H216l.11,0,.17,0,.13,0,.39-.11a5.65,5.65,0,0,0,.57-.23l.29-.14.27-.12a3.55,3.55,0,0,0,.55-.28l.44-.22.14-.06.15-.07.15-.07.15-.06.14-.07.23-.11.23-.12.13-.06.42-.21.3-.14.24-.12.23-.11.28-.14.49-.24.44-.22.35-.15.19-.09.54-.25.2-.08.2-.09.27-.12.09,0,.3-.12.12,0,.33-.15.36-.14.14-.05.17-.06.21-.09.09,0,.2-.09.38-.11.25-.07.25-.08.38-.11c.18,0,.28-.14.26-.28a.17.17,0,0,0-.07-.14.4.4,0,0,0,0-.23,2,2,0,0,1-.1-.21l-.06-.13-.09-.17-.18-.43,0-.09,0-.09c-.05-.12-.09-.23-.14-.33l-.11-.23-.1-.22-.12-.25-.11-.24-.1-.21-.1-.2-.07-.15c-.05-.09-.09-.19-.14-.27l-.09-.16a2.71,2.71,0,0,0-.23-.37,3.62,3.62,0,0,1-.22-.32h0a.35.35,0,0,0-.05-.11l-.06-.12a2.2,2.2,0,0,1-.15-.31.89.89,0,0,0-.08-.17l-.06-.13c-.06-.14-.1-.21-.13-.28a.61.61,0,0,1-.07-.14l-.06-.12-.06-.12a.77.77,0,0,1-.07-.16l-.14-.24-.08-.17-.08-.15-.05-.08-.17-.36-.08-.18c-.06-.15-.09-.21-.12-.28l-.06-.14,0-.09,0-.08a1.54,1.54,0,0,1-.08-.19l-.1-.24-.1-.23-.1-.28-.11-.29q-.12-.28-.21-.57l-.05-.11-.06-.19a1.43,1.43,0,0,1-.08-.22l-.07-.23-.06-.22,0-.14-.06-.29,0-.17a2.19,2.19,0,0,1,0-.27l0-.17a3.91,3.91,0,0,1-.07-.45l0-.18c0-.12,0-.24,0-.36a4.3,4.3,0,0,1,.1-.94l.05-.16.06-.21,0-.11h0a2.12,2.12,0,0,0,.14-.37l0-.13a.21.21,0,0,0,.1-.11l.09-.12a.75.75,0,0,1,.12-.14l.08-.08a.63.63,0,0,0,.17-.19,2.88,2.88,0,0,1,1.06-.54l.2,0h.17l.14,0,.09,0H226l.18,0h.13l.1,0,.13,0,.12,0a2,2,0,0,1,.37.12h.12a1.66,1.66,0,0,1,.3.22,1.47,1.47,0,0,0,.33.23l.16.14.07.06a2,2,0,0,1,.22.29l.06.1.07.09.06.09.06.06.07.14.06.08.06.11.08.13.11.17,0,.09.05.11,0,.09.13.31.12.26.05.11.06.13c0,.09.07.18.1.26a2,2,0,0,0,.08.22l.08.2.06.13a.83.83,0,0,0,.12.27l.19.31.1.14a.94.94,0,0,0,.12.18,4,4,0,0,1,.38.59l.12.21.09.16a4.35,4.35,0,0,0,.28.44,4.46,4.46,0,0,0,.34.42.21.21,0,0,0,.08.11.79.79,0,0,0,.12.13l.07.09.08.09.13.18.15.25.14.24c.1.15.21.29.32.43l.23.29.15.21.15.21.22.28.19.24.11.17.06.09.17.28,0,.08.11.15.14.22.11.17,0,.1.05.1.05.08,0,.08.1.17.08.13.09.14a.46.46,0,0,0,.07.13.27.27,0,0,0,.09.13.23.23,0,0,0,.08.25.28.28,0,0,0,.13,0,.26.26,0,0,0,.19-.1l.13-.15.06-.07a1.18,1.18,0,0,0,.18-.21l.15-.23.15-.22.12-.24,0-.08.16-.31.08-.16c.08-.15.15-.29.22-.45l.28-.57.14-.28.16-.32,0-.09c.08-.19.17-.37.24-.56s.07-.21.11-.32.07-.2.11-.31l.12-.32.11-.29c.09-.21.16-.43.23-.65l.05-.14c0-.1.06-.21.1-.31s.09-.26.13-.39a3.17,3.17,0,0,0,.12-.44c0-.1,0-.21.07-.31a3,3,0,0,1,.07-.32l.05-.24.11-.49c.05-.19.07-.31.11-.42s0-.22.08-.34.06-.28.08-.41l.07-.32c.05-.28.1-.56.14-.84l.06-.36c0-.19,0-.38.07-.57s0-.55.06-.82,0-.47.07-.7a2,2,0,0,0,0-.25v-.1l0-.17v-.17a1.2,1.2,0,0,0-.09-.55.19.19,0,0,0-.08-.1,3.52,3.52,0,0,0-.19-.51l-.2-.37c-.09-.18-.18-.35-.29-.53s-.12-.2-.22-.23a4.34,4.34,0,0,0-.47-.59,14.2,14.2,0,0,0-1.39-1.26l-.19-.15a12.92,12.92,0,0,0-2.44-1.68,9.47,9.47,0,0,0-2.79-.92h-.1a9.26,9.26,0,0,0-1.26-.12"/><path class="cls-1" d="M74.94,244h-.58a17.89,17.89,0,0,0-4.1.72,14,14,0,0,0-5.34,2.51A15.29,15.29,0,0,0,62,251.12l-.35.59a2.16,2.16,0,0,0-.23,1.67,2.18,2.18,0,0,0,1.87,1.68l.38.28.26.19.22.15a5.14,5.14,0,0,0,.42.38c.32.28.65.54,1,.8l.33.24c.21.15.43.31.63.48a.24.24,0,0,0,.14.05l.11.07h0l.14.08.16.06.14.13.07.08a.25.25,0,0,0,.16.09h0a.26.26,0,0,0,.14,0c.1.11.15.14.21.14a.28.28,0,0,0,.19-.09.31.31,0,0,0,0-.12c.07-.11.14-.22.22-.33a.27.27,0,0,1,.07-.08l.08-.09.26-.34.22-.24.15-.13.08-.07.12-.09.19-.16.3-.28.18-.2.09-.1.13-.16h0a.34.34,0,0,0,.12,0,1,1,0,0,0,.19-.17l.09-.08a1.47,1.47,0,0,0,.38-.32l.23-.3.17-.15.09-.07.18-.16.27-.24.13-.11.14-.14.07-.07a2.2,2.2,0,0,1,.29-.27l.18-.12.09-.06.5-.35.19-.13.09-.09.23-.22.09-.08a1,1,0,0,1,.24-.17l.16-.12a.54.54,0,0,0,.12-.09,3.71,3.71,0,0,0,.39-.35l.2-.22.06-.08.28-.3.13-.11.13-.1.08,0,.08-.05a1,1,0,0,0,.23-.12l.16-.06.17-.07.15-.09.1-.07a.19.19,0,0,0,.09,0h.13l.2-.05a.1.1,0,0,0,.08.07.37.37,0,0,0,.15,0l.33.06.15.05.26.08.2.05h.09l.24,0h.2l0,.09a1.24,1.24,0,0,0,.1.2l.15.22.14.18a.46.46,0,0,0,.12.18l.23.34.06.11.11.17,0,.11.07.31a5.05,5.05,0,0,1,.06.67.79.79,0,0,1,0,.09.58.58,0,0,1,0,.11c0,.13-.06.21-.08.29l0,.17,0,.13-.08.09-.11.12-.09.12-.06.08-.1.06-.08.07a2.73,2.73,0,0,0-.24.22l-.14.14-.09.07-.08.07-.16.17-.07.07-.08.08-.11.1-.1.08-.1.09-.1.06a1.2,1.2,0,0,1-.21.14l-.08,0-.09.06-.1.07-.08.06-.1.08-.09.06-.09.08-.12.09-.09.08-.15.1-.1.08-.08,0-.16.1-.18.14-.12.13a1.08,1.08,0,0,0-.18.26.35.35,0,0,0,0,.08l-.07.11-.08.13,0,.08-.06.1a2.09,2.09,0,0,0-.1.21l-.08.15,0,.09-.06.09-.06.09-.09.14,0,.08,0,.09-.08.1,0,.08-.05.09-.09.11-.06.07a1.26,1.26,0,0,1-.16.22l-.14.17a1.25,1.25,0,0,1-.15.19,2,2,0,0,0-.25.32,1.92,1.92,0,0,1-.18.22l-.13.12-.07.05-.08.08a.24.24,0,0,0-.11.09.47.47,0,0,0-.06.09.44.44,0,0,0-.08.16.29.29,0,0,0-.07.08.21.21,0,0,0,0,.17.24.24,0,0,0,.09.16.3.3,0,0,0,.1.05,6.23,6.23,0,0,0,.54.63,3.2,3.2,0,0,0,.65.46l.1,0h0l.36.22.25.14.65.41.12.08a6.32,6.32,0,0,0,.56.33,8,8,0,0,0,.76.3l.3.08.09,0,.43.11.24.07.31.09.12,0,.12,0,.39.11.6.16.32.09.13,0,.25.08a3.43,3.43,0,0,0,.47.1,5,5,0,0,1,.54.08l.17,0,.09,0,.14,0,.15,0,.26.06.19,0h.09l.42.08h.1l.08,0,.19,0,.18,0,.14,0,.14,0,.21,0h0a.26.26,0,0,0,.27-.2.41.41,0,0,0,0-.11,1.72,1.72,0,0,0,.62-.25l.27-.2.27-.2a2.52,2.52,0,0,0,.67-1.16,13.84,13.84,0,0,0,.92-3.13,20.35,20.35,0,0,0,.21-3.77,29.19,29.19,0,0,0-.37-4.18,8.05,8.05,0,0,0-.42-1.6c-.17-.41-.34-.81-.52-1.2a9.7,9.7,0,0,0-1.12-1.69,8.42,8.42,0,0,0-1.21-1.12,15.24,15.24,0,0,0-2-1.37,11.78,11.78,0,0,0-3.6-1.34,16.21,16.21,0,0,0-3.14-.33"/></g></g></svg>