<svg xmlns="http://www.w3.org/2000/svg" viewBox="0 0 307.55 479.48"><defs><style>.cls-1{fill:#d9663b;}.cls-2{fill:#fcc55b;}.cls-3{fill:#f5b947;}.cls-4{fill:#ffcc7b;}.cls-5{fill:#d66d3a;}.cls-6{fill:#fff;}.cls-7{fill:#5e4940;}.cls-8{fill:#f2874d;}</style></defs><title>Asset 1</title><g id="Layer_2" data-name="Layer 2"><g id="Layer_1-2" data-name="Layer 1"><path class="cls-1" d="M219,361.46s.89,54.69-5.85,63.14-43.5,3.23-49.9,12.89a29.41,29.41,0,0,0-4.63,19.67l11.28-12.86s25.88-6.54,36.92-3.27c0,0-17,16.34-12.71,26.87s9.83,11.58,9.83,11.58L205.3,466s11.78-14.47,14.89-21.89,21.74-5.51,28.81-3.6,14.5,5,19.33,3.64,12.42,6.92,12.42,6.92.88-10.7-1.36-14S268,433.81,268,433.81s-17.95-8-28.65-8.84-5.6-62.22-5.6-62.22Z"/><path class="cls-1" d="M90.78,364s6.11,48.2-.63,56.65S42.6,427,36.2,436.66,28.81,460,28.81,460l14.26-14.88s29.28-5.37,40.11-3.7c0,0-20.42,15.17-16.11,25.7s9.82,11.58,9.82,11.58l1.4-13.47s14.51-13.27,17.63-20.69,19-6.71,26.07-4.8,14.49,5,19.33,3.64,12.41,6.92,12.41,6.92.88-10.7-1.36-14S141,433,141,433s-17.94-8-28.64-8.84-1.84-57-1.84-57Z"/><path class="cls-2" d="M58.76,147.83S5.63,162.31.8,231.54,52.32,370,113.49,387.69s144.88,8,180.3-82.1-1.61-154.54-64.4-164.2S58.76,147.83,58.76,147.83Z"/><path class="cls-3" d="M196.33,222.45s-37,42.49-5.28,93.48,78.09,34.68,74.57-1S222,267.54,229,255.65,229.78,198.66,196.33,222.45Z"/><path class="cls-4" d="M188.43,216.37c-18.32,13.09-27.45,41.73,1.53,90s77.11,35.25,72.44,1.61c-4.4-31.59-20.67-43.45-22.91-66.75C238,225.64,210.29,200.76,188.43,216.37Z"/><path class="cls-3" d="M45.07,66.21s29.73-96.75,136.82-54C278.44,50.66,268.28,147,231.81,179.8c-36.71,33-122.34,37.86-170.64-10.33S45.07,66.21,45.07,66.21Z"/><path class="cls-2" d="M45.07,61.7S77-31,183.2,10.85s84,134.56,48.61,157.1-126,39.83-174.28-5.25S45.07,61.7,45.07,61.7Z"/><path class="cls-5" d="M83.71,110.34c-8.09,5.15-18.25,7.85-28.8,7.85-6.55,0-14.4-5.23-20.95-7.85C16,103.14,0,87.46,0,87.46s27.37,8.05,43.46,9.66,33.7,8,33.7,8Z"/><path class="cls-6" d="M99.81,92.29C90,81.43,104,54.44,129.09,59s24.4,26.38,14.18,34.9C133.61,102,112.51,106.41,99.81,92.29Z"/><path class="cls-7" d="M136.37,71.73c-4.45-5.39-12.23-5.41-18.21-2.55-4.91,1.27-9.35,6.1-9.94,10.85-1.33,10.58,11.86,12.23,19.51,10.87,4.22-.75,7.9-2.63,9.81-6.63S139.22,75.16,136.37,71.73Z"/><path class="cls-6" d="M116.76,68.38a3.1,3.1,0,0,0-.61,1.94,4.3,4.3,0,0,0,.7,2.38A3.13,3.13,0,0,0,118.47,74a2.21,2.21,0,0,0,1,.1c.44-.07.63-.4.82-.79a4.38,4.38,0,0,0-.77-5,2.74,2.74,0,0,0-2.11-.62,2.19,2.19,0,0,0-1.78,1.7c-.08.31-.13,1.25.34,1.32a2.09,2.09,0,0,0,1.05-.28,3,3,0,0,1,1.43-.11,1.53,1.53,0,0,1,1.1.74c.18.35.11.47-.17.83l.27-.16a2.08,2.08,0,0,1-2-.62,2.21,2.21,0,0,1-.52-.82,1.65,1.65,0,0,1,0-.21c0-.47,0-.09.11-.36a1.49,1.49,0,0,0,0-1.08c-.08-.19-.27-.49-.47-.21Z"/><path class="cls-8" d="M0,87.46s20.93-16.1,35.42-20.93a55.26,55.26,0,0,0,17.52-9.72,5.24,5.24,0,0,1,8.24,2.38C63.35,65.38,64.74,73.92,58,77.8c-11.27,6.44,8.42,21.89,24.45,23.38C95.79,102.42,90.25,113,90.25,113s-29.13-3.8-43.2-11.78C34.46,94,3.22,93.9,0,87.46Z"/><path class="cls-5" d="M43.52,79.94a11.55,11.55,0,0,1,5.58-3.08c.38-.1.42-1.29,0-1.3a7.67,7.67,0,0,0-5.89,3.16c-.24.29-.1,1.66.31,1.22Z"/></g></g></svg>